<?xml version="1.0" standalone="no"?>
<!DOCTYPE svg PUBLIC "-//W3C//DTD SVG 1.1//EN" "http://www.w3.org/Graphics/SVG/1.1/DTD/svg11.dtd" >
<!--
2013-9-30: Created.
-->
<svg>
<metadata>
Created by iconfont
</metadata>
<defs>

<font id="iconfont" horiz-adv-x="1024" >
  <font-face
    font-family="iconfont"
    font-weight="500"
    font-stretch="normal"
    units-per-em="1024"
    ascent="896"
    descent="-128"
  />
    <missing-glyph />
    
    <glyph glyph-name="x" unicode="x" horiz-adv-x="1001"
d="M281 543q-27 -1 -53 -1h-83q-18 0 -36.5 -6t-32.5 -18.5t-23 -32t-9 -45.5v-76h912v41q0 16 -0.5 30t-0.5 18q0 13 -5 29t-17 29.5t-31.5 22.5t-49.5 9h-133v-97h-438v97zM955 310v-52q0 -23 0.5 -52t0.5 -58t-10.5 -47.5t-26 -30t-33 -16t-31.5 -4.5q-14 -1 -29.5 -0.5
t-29.5 0.5h-32l-45 128h-439l-44 -128h-29h-34q-20 0 -45 1q-25 0 -41 9.5t-25.5 23t-13.5 29.5t-4 30v167h911zM163 247q-12 0 -21 -8.5t-9 -21.5t9 -21.5t21 -8.5q13 0 22 8.5t9 21.5t-9 21.5t-22 8.5zM316 123q-8 -26 -14 -48q-5 -19 -10.5 -37t-7.5 -25t-3 -15t1 -14.5
t9.5 -10.5t21.5 -4h37h67h81h80h64h36q23 0 34 12t2 38q-5 13 -9.5 30.5t-9.5 34.5q-5 19 -11 39h-368zM336 498v228q0 11 2.5 23t10 21.5t20.5 15.5t34 6h188q31 0 51.5 -14.5t20.5 -52.5v-227h-327z" />
    

    
    <glyph glyph-name="baidu" unicode="&#13447;" d="M278.5498 324.1656c81.0734 17.4172 70.0385 114.2965 67.605 135.4781-3.9775 32.6519-42.3721 89.6952-94.5149 85.1992-65.6143-5.881-75.1922-100.6558-75.1922-100.6558C167.5694 400.361 197.6743 306.7634 278.5498 324.1656zM364.6361 155.6709c-2.3805-6.8194-7.6741-24.2366-3.08-39.3993 9.0442-34.0369 38.5895-35.5629 38.5895-35.5629h42.45499862087712V184.47232776177748h-45.452092469189594C376.7054 178.3815 366.8467 162.4902 364.6361 155.6709zM429.0171 486.6395c44.7785 0 80.9615 51.5261 80.9615 115.2339 0 63.6498-36.184 115.1619-80.9615 115.1619-44.6946 0-80.9875-51.5121-80.9875-115.1619C348.0297 538.1655 384.3226 486.6395 429.0171 486.6395zM621.8535 479.0226c59.8449-7.7707 98.3225 56.091 105.9676 104.4952 7.815 48.3322-30.8044 104.4922-73.1735 114.1386-42.455 9.7314-95.4663-58.2595-100.2842-102.6024C548.5941 540.8547 562.1215 486.7104 621.8535 479.0226zM768.4842 194.4855c0 0-92.5811 71.6304-146.6307 149.0589-73.2594 114.1556-177.3482 67.6961-212.1591 9.6465-34.6699-58.0496-88.6896-94.7628-96.3637-104.4922-7.7821-9.5775-111.8489-65.7374-88.7446-168.3539 23.1043-102.5335 104.2327-100.5718 104.2327-100.5718s59.787-5.881 129.1549 9.6465c69.3939 15.3866 129.1269-3.8514 129.1269-3.8514s162.0899-54.2702 206.4467 50.2239C837.8521 140.2843 768.4842 194.4855 768.4842 194.4855zM491.1586 38.984H385.7786447819187c-45.5061 9.0728-63.6245 40.1278-65.9211 45.4212-2.2396 5.3764-15.1504 30.3414-8.3197 72.7946 19.6605 63.6359 75.7508 68.2008 75.7508 68.2008h56.09332464552544v68.9432564721119l47.7746-0.7285V38.983968869106775zM687.4138 39.7115H566.1529267385943c-46.9891 12.1128-49.2027 45.4902-49.2027 45.4902V219.30970801796389l49.2027 0.7975v-120.5242845350852c2.9971-12.8553 18.9609-15.1777 18.9609-15.1777h49.95922593230705V219.30970801796389h52.33971194320412V39.711475619530006zM859.0786 397.7437c0 23.1613-19.2388 92.887-90.5944 92.887-71.4675 0-81.0165-65.8064-81.0165-112.3348 0-44.3979 3.7536-106.3819 92.5272-104.4092C868.7964 275.8484 859.0786 374.4595 859.0786 397.7437z"  horiz-adv-x="1000" />

    
    <glyph glyph-name="iconfontshubiao" unicode="&#58934;" d="M700.693626-210.72496 535.344106-210.72496c-109.614911 0-198.424132 89.887216-198.424132 200.777793L336.919974 291.179101l200.517902 0 0-66.926272c0-36.94954 27.497364-66.884316 64.022706-66.884316l33.077682 0c36.566275 0 66.155363 29.934776 66.155363 66.884316l0 66.926272 200.516879 0 0-301.126268C901.210505-120.837744 810.310584-210.72496 700.693626-210.72496zM700.693626 358.105373c0 36.992519-30.611413 66.926272-67.178711 66.926272l0 0 1.023348 198.701504c0 0-43.379727 2.076288 64.10355 2.076288s201.545344-71.077825 201.545344-200.778816c0-66.552765 1.023348-90.591251 1.023348-98.272187L700.693626 326.758434 700.693626 358.105373zM596.928173 652.638479c0 69.375044-32.684716 108.026342-98.056194 108.026342-69.111816 0-122.059848-49.827849-158.706968-149.438521l-7.526725-20.395516c-42.88238-116.487038-105.715955-174.729533-188.498678-174.729533-33.396966 0-64.56815 12.735046-93.514575 38.117133-28.990429 25.469068-43.461595 52.809763-43.461595 82.066087 0 14.47262 6.769448 21.773909 20.395328 21.773909 9.172269 0 18.612656-11.576663 28.410191-34.643008 17.72439-42.659589 47.291987-63.943334 88.705862-63.943334 31.35027 0 56.999467 10.152221 76.948616 30.413684 19.950172 20.260439 42.661337 59.266825 68.088468 116.976178l16.431901 36.381605C354.324056 750.957739 419.250378 804.836857 500.874671 804.836857c93.471595 0 140.183343-53.389978 140.183343-152.198378l-0.623219 0L596.928173 652.638479zM667.613898 341.416272l0-100.389408c0-27.735691-22.158557-50.236148-49.574053-50.236148-27.41345 0-49.617034 22.500457-49.617034 50.236148l0 100.389408c0 27.691689 21.180236 50.15326 48.593686 50.15326C644.431993 391.568509 667.613898 369.106937 667.613898 341.416272zM537.437876 625.810461c107.44132 0 66.114429-2.076288 66.114429-2.076288l-1.023348-198.701504c-36.523295 0-65.091081-29.933753-65.091081-66.926272l0-31.345915L336.919974 326.76048c0 7.680936 0 31.719422 0 98.272187C336.919974 554.732635 429.915712 625.810461 537.437876 625.810461z"  horiz-adv-x="1024" />

    
    <glyph glyph-name="tubiao" unicode="&#58890;" d="M877.10592 715.82208C872.96768 718.51776 868.21376 719.84 863.48416 719.84c-4.8512 0-9.7024-1.37216-13.91488-4.21376L96.92288 213.8624c-7.74144-5.1456-12.00512-14.21056-11.02464-23.47008 0.95616-9.26208 6.9824-17.248 15.63008-20.67712l196.29568-78.54976 92.29312-161.50528c4.4096-7.74272 12.61824-12.54528 21.51168-12.64256 0.09728 0 0.17024 0 0.27008 0 8.7936 0 16.97664 4.65792 21.50912 12.20224l52.11264 86.87488 243.21536-97.26208c2.9888-1.22496 6.14784-1.81504 9.30944-1.81504 4.26112 0 8.50048 1.07776 12.29824 3.232 6.61376 3.7248 11.19616 10.24256 12.44544 17.74208L888.2304 690.63552C889.87136 700.48512 885.5104 710.38208 877.10592 715.82208zM164.44672 198.57536l581.41312 387.64032-422.7264-452.5184c-2.23104 1.3248-4.21504 3.08736-6.66496 4.06784L164.44672 198.57536zM341.38624 116.0576c-0.04864 0.09728-0.1216 0.1472-0.17152 0.24448l475.22944 508.67328-405.13536-631.2704L341.38624 116.0576zM718.42048-23.008l-214.27968 85.7024c-5.11872 2.0096-10.41152 2.69696-15.6544 2.99008l329.96864 511.51488L718.42048-23.008z"  horiz-adv-x="1024" />

    
    <glyph glyph-name="gouwuche" unicode="&#59081;" d="M753.429-27.004c-43.1 0-78.042-33.971-78.042-77.377 0-43.431 34.942-78.61 78.042-78.61 43.097 0 78.041 35.18 78.041 78.61C831.47-60.974 796.526-27.004 753.429-27.004zM328.326-27.004c-43.123 0-75.671-32.76-75.671-76.168 0-43.429 32.549-78.61 75.671-78.61 43.099 0 78.041 35.182 78.041 78.61C406.367-59.763 371.425-27.004 328.326-27.004zM1022.804 282.058l-0.829 268.522c0 0-3.889 80.815-73.537 80.815L210.931 630.4l-16.262 39.637c0 0-16.453 117.963-95.727 117.963 0 0-95.75 0-95.75-116.185l80.294 0.118c0 0 98.333-565.8 98.333-582.846 0-21.383 17.165-77.377 38.405-77.377l725.369 0c21.218 0 38.404 36.649 38.404 58.009 0 21.384-17.187 58.058-38.404 58.058L273.067 127.777l-19.084 77.165 693.651 3.058C947.634 207.999 1022.804 207.098 1022.804 282.058zM330.697 321.245c0-21.36-17.187-38.689-38.405-38.689l-1.208 0c-21.217 0-38.428 17.329-38.428 38.689l0 38.689c0 21.383 17.211 38.712 38.428 38.712l1.208 0c21.218 0 38.405-17.33 38.405-38.712L330.697 321.245zM330.697 476.024c0-21.36-17.187-38.688-38.405-38.688L253.84 437.336c-21.193 0-38.404 17.329-38.404 38.688l0 38.712c0 21.36 17.211 38.689 38.404 38.689l38.452 0c21.218 0 38.405-17.329 38.405-38.689L330.697 476.024zM484.432 321.245c0-21.36-17.211-38.689-38.428-38.689l-38.452 0c-21.193 0-38.404 17.329-38.404 38.689l0 38.689c0 21.383 17.211 38.712 38.404 38.712l38.452 0c21.217 0 38.428-17.33 38.428-38.712L484.432 321.245zM484.432 476.024c0-21.36-17.211-38.688-38.428-38.688l-38.452 0c-21.193 0-38.404 17.329-38.404 38.688l0 38.712c0 21.36 17.211 38.689 38.404 38.689l38.452 0c21.217 0 38.428-17.329 38.428-38.689L484.432 476.024zM638.145 321.245c0-21.36-17.212-38.689-38.427-38.689l-38.43 0c-21.217 0-38.428 17.329-38.428 38.689l0 38.689c0 21.383 17.211 38.712 38.428 38.712l38.43 0c21.215 0 38.427-17.33 38.427-38.712L638.145 321.245zM638.145 476.024c0-21.36-17.212-38.688-38.427-38.688l-38.43 0c-21.217 0-38.428 17.329-38.428 38.688l0 38.712c0 21.36 17.211 38.689 38.428 38.689l38.43 0c21.215 0 38.427-17.329 38.427-38.689L638.145 476.024zM791.858 321.245c0-21.36-17.212-38.689-38.429-38.689l-38.428 0c-21.217 0-38.429 17.329-38.429 38.689l0 38.689c0 21.383 17.212 38.712 38.429 38.712l38.428 0c21.217 0 38.429-17.33 38.429-38.712L791.858 321.245zM791.858 476.024c0-21.36-17.212-38.688-38.429-38.688l-38.428 0c-21.217 0-38.429 17.329-38.429 38.688l0 38.712c0 21.36 17.212 38.689 38.429 38.689l38.428 0c21.217 0 38.429-17.329 38.429-38.689L791.858 476.024zM945.571 321.245c0-21.36-17.211-38.689-38.43-38.689l-38.428 0c-21.218 0-38.429 17.329-38.429 38.689l0 38.689c0 21.383 17.211 38.712 38.429 38.712l38.428 0c21.219 0 38.43-17.33 38.43-38.712L945.571 321.245zM945.571 476.024c0-21.36-17.211-38.688-38.43-38.688l-38.428 0c-21.218 0-38.429 17.329-38.429 38.688l0 38.712c0 21.36 17.211 38.689 38.429 38.689l38.428 0c21.219 0 38.43-17.329 38.43-38.689L945.571 476.024z"  horiz-adv-x="1029" />

    
    <glyph glyph-name="fenxiang" unicode="&#59471;" d="M511.201821 751.230961c-247.526513 0-448.185602-200.659089-448.185602-448.185602s200.659089-448.185602 448.185602-448.185602S959.388447 55.51987 959.388447 303.045359 758.728334 751.230961 511.201821 751.230961zM675.442466 382.35159c-9.030677 0-17.720593 1.443885-25.872251 4.084015l-90.319052-157.489894c19.25146-18.273179 31.256888-44.10552 31.256888-72.743768 0-55.385425-44.898583-100.284007-100.284007-100.284007-55.385425 0-100.284007 44.898583-100.284007 100.284007 0 24.721031 8.949836 47.348378 23.779589 64.830541l-56.131415 51.285037c-8.755408-4.340865-18.611893-6.792707-29.046546-6.792707-36.169781 0-65.491597 29.321816-65.491597 65.491597 0 36.169781 29.321816 65.491597 65.491597 65.491597s65.491597-29.321816 65.491597-65.491597c0-14.518668-4.731768-27.927049-12.726859-38.785352l55.785537-50.969858c15.405875 9.643638 33.615609 15.22475 53.132104 15.22475 15.664771 0 30.489408-3.593851 43.698245-9.998725l88.670505 154.614403c-18.945491 15.385409-31.060413 38.854936-31.060413 65.162092 0 46.342468 37.56864 83.911108 83.911108 83.911108s83.911108-37.56864 83.911108-83.911108S721.785957 382.35159 675.442466 382.35159z"  horiz-adv-x="1024" />

    
    <glyph glyph-name="wuyoutuihuan" unicode="&#58894;" d="M512 768c-265.094 0-480-214.906-480-480 0-265.114 214.906-480 480-480 265.114 0 480 214.886 480 480 0 265.094-214.886 480-480 480zM512-153.6c-243.878 0-441.6 197.703-441.6 441.6 0 243.878 197.722 441.6 441.6 441.6 243.897 0 441.6-197.722 441.6-441.6 0-243.897-197.703-441.6-441.6-441.6zM551.571 546.835l0.192-132.211-172.589-0.308v-94.637h405.216zM244.448 414.624h96.288v-94.925h-96.288v94.925zM647.859 260.736h-408.249l234.989-231.571-0.634 136.166 173.894 0.883zM686.374 260.966h95.962v-95.558h-95.962v95.558z"  horiz-adv-x="1024" />

    
    <glyph glyph-name="aiguifanfile2" unicode="&#58881;" d="M344.902796 314.849196M758.05244 760.954417 265.950629 760.954417c-38.438451 0-75.217099-31.162744-75.217099-69.612451L190.733531 24.409314c0-38.445614 36.778648-75.233472 75.217099-75.233472l293.177226 0 73.937966 0 195.10356 211.680097 5.096065 12.300141 0 77.494978L833.265446 691.341966C833.265446 729.791673 796.490891 760.954417 758.05244 760.954417L758.05244 760.954417zM618.859261 18.518141 618.859261 146.230847c0 19.222807 15.57779 34.80469 34.792411 34.80469L771.187599 181.035538 618.859261 18.518141 618.859261 18.518141zM784.423041 229.886129 653.651672 229.886129c-38.434358 0-86.448908-31.162744-86.448908-69.608358l0-162.246221L274.375509-1.968449c-19.218714 0-34.800597 15.584953-34.800597 34.80469L239.574912 677.299135c0 19.222807 15.581883 34.808784 34.800597 34.808784L749.626537 712.107919c19.218714 0 34.796504-15.585977 34.796504-34.808784L784.423041 229.886129 784.423041 229.886129zM318.147432 526.289839l387.708206 0 0 46.044686L318.147432 572.334525 318.147432 526.289839 318.147432 526.289839zM318.147432 421.872698l387.708206 0 0 46.040592L318.147432 467.913291 318.147432 421.872698 318.147432 421.872698zM318.147432 317.455557l178.910763 0 0 46.041616L318.147432 363.497173 318.147432 317.455557 318.147432 317.455557zM318.147432 213.037393l178.910763 0 0 46.040592L318.147432 259.077985 318.147432 213.037393 318.147432 213.037393zM318.147432 213.037393"  horiz-adv-x="1024" />

    
    <glyph glyph-name="shunfeng2" unicode="&#58883;" d="M511.467881 744.587658c-246.02123 0-445.465654-199.462844-445.465654-445.485097 0-246.026346 199.444425-445.490214 445.465654-445.490214 246.047836 0 445.471794 199.463867 445.471794 445.490214C956.938652 545.124813 757.514693 744.587658 511.467881 744.587658M511.467881-101.538189c-221.249033 0-400.61619 179.3866-400.61619 400.64075 0 221.255173 179.367157 400.63768 400.61619 400.63768 221.255173 0 400.627447-179.382507 400.627447-400.63768C912.095327 77.848411 732.723054-101.538189 511.467881-101.538189M680.561044 260.230228c-23.638373 0-42.148959 18.549471-42.148959 42.225707 0 23.432689 18.511609 41.71917 42.148959 41.71917 23.394826 0 41.758056-18.287505 41.758056-41.71917C722.318076 279.209488 703.602829 260.26809 680.561044 260.230228zM757.227144 208.030355M241.155409 588.11186M387.114688 118.269006c-41.309848 0-76.694753 11.131525-108.218724 34.17331l-1.064238 0.858554 0 1.38044 0 69.420069 0 7.364735 4.754281-5.612834c9.078773-10.659781 43.103704-45.410236 98.656951-45.410236 42.875506 0 47.481408 31.486108 47.481408 45.095058 0 27.42256-28.506241 43.266409-60.250222 58.407248l-2.443655 1.211595c-41.36613 19.591197-88.197738 41.924855-88.197738 102.491279 0 54.231135 45.61899 95.357811 108.556415 97.706299 2.888793 0.128937 5.666046 0.186242 8.444323 0.186242 54.32221 0 81.764212-20.434401 86.724177-24.572652l1.025353-0.855484 0.033769-1.326205 0-59.353806 0-6.0416-4.510734 3.990894c-19.312858 16.96437-50.818409 27.89021-80.065524 27.89021-13.404288 0-25.131377-2.314719-33.929764-6.506181-12.621459-6.114255-18.791995-16.257266-18.791995-31.116695 0-18.659989 21.86703-29.825282 49.514717-43.955094l4.659113-2.405793c36.220946-18.605753 96.9204-49.848315 96.9204-118.733195 0-29.232788-12.32163-59.171658-31.337729-76.394924C445.054285 128.16847 417.368736 118.269006 387.114688 118.269006zM602.8788 116.163041l-2.683109 0-62.789045 0-2.701528 0 0 2.683109L534.705118 460.838152l0 1.88493 1.714038 0.649799c2.38635 0.949628 58.855456 22.931269 118.901017 22.931269 64.760956 0 97.368608-24.067138 97.741092-24.311709l1.082658-0.840134 0-1.340531 0-60.32697 0-5.51869-4.549619 3.470031c-5.240351 3.990894-33.948183 23.914666-86.61366 24.942065-1.174756 0.057305-2.439562 0.095167-3.65218 0.095167-27.051099 0-46.254463-5.836939-55.256488-9.265014l-1.193175-0.429789 0-1.269923 0.01842-292.663526L602.8788 116.163041z"  horiz-adv-x="1024" />

    
    <glyph glyph-name="iconzhuanqu07" unicode="&#58937;" d="M776.697967 564.711861c-70.707887 70.702834-164.712241 109.641432-264.697335 109.641432-99.992673 0-193.999553-38.938598-264.704914-109.642695-70.706623-70.70536-109.647748-164.714767-109.647748-264.711229 0-99.988884 38.939861-193.995764 109.647748-264.702388 70.706623-70.707887 164.714767-109.649011 264.704914-109.649011 99.983831 0 193.988186 38.941124 264.698598 109.647748 70.711676 70.70915 109.654063 164.71603 109.654063 264.703651C886.35203 399.994568 847.409643 494.002711 776.697967 564.711861zM511.999368-23.828353c-178.559518 0-323.828984 145.268204-323.828984 323.827721 0 178.560781 145.269467 323.830247 323.828984 323.830247s323.828984-145.269467 323.828984-323.830247C835.828353 121.439851 690.558886-23.828353 511.999368-23.828353zM490.045568 206.982752c-5.044789 4.269251-12.360618 6.405139-21.953801 6.405139l-96.300655 0c3.073103 5.070051 6.088103 9.407509 9.039949 13.009847 6.886377 9.072789 19.58424 21.816124 38.096116 38.230004 18.509349 16.412617 31.699818 28.452409 39.57267 36.128219 7.869063 7.67202 15.589081 18.279466 23.152475 31.824864 7.564658 13.541609 11.346355 28.58756 11.346355 45.134064 0 10.539239-1.816326 20.714708-5.442663 30.52388-3.630126 9.807909-8.702703 18.444932-15.220258 25.91991-6.520081 7.471189-14.083475 13.34204-22.691447 17.612554-13.283938 6.405139-29.334047 9.607077-48.151591 9.607077-15.620658 0-29.240578-2.500922-40.86355-7.505292-11.622972-5.003107-21.214892-11.577501-28.77955-19.714339-7.563395-8.140628-13.253624-17.213417-17.064372-27.220894-3.814538-10.00874-5.71928-19.614555-5.71928-28.822495 0-7.605077 2.028526-13.609816 6.088103-18.012954s9.161206-6.604708 15.312464-6.604708c7.01016 0 12.32904 2.402401 15.957904 7.205939 3.626337 4.803539 6.886377 11.674759 9.777595 20.616187 2.888691 8.937639 4.948794 14.410616 6.180309 16.411354 9.22436 15.342778 21.890646 23.018587 38.00391 23.018587 7.625286 0 14.667024-1.869376 21.12395-5.604339 6.456926-3.737489 11.558554-8.975531 15.312464-15.711601 3.75012-6.739859 5.627075-14.380302 5.627075-22.918803 0-7.874115-1.753172-15.912432-5.258252-24.118741-3.50508-8.206308-8.610498-16.211785-15.312464-24.018956-6.705755-7.805908-15.099001-15.580239-25.182264-23.31794-5.658652-4.136626-15.067424-12.778701-28.226315-25.91991-13.161418-13.143735-27.920647-28.922279-44.276425-47.335633-3.938321-4.538289-7.564658-10.777963-10.885326-18.71397-3.320669-7.941059-4.981635-14.310832-4.981635-19.11437 0-7.473715 2.583023-13.979902 7.749069-19.51477 5.164783-5.538658 12.360618-8.306093 21.584978-8.306093l135.78112 0c8.117892 0 14.174418 2.26725 18.172104 6.805539 3.99516 4.5345 5.995897 10.073158 5.995897 16.612185C497.610225 196.905805 495.087831 202.710975 490.045568 206.982752zM721.114343 269.431281c-5.71928 2.801538-13.315515 4.20357-22.784915 4.20357l-7.932217 0 0 154.919489c0 23.216893-9.348143 34.825971-28.041904 34.825971-5.782435 0-10.731229-2.101785-14.850172-6.305355-4.122732-4.202307-9.379721-10.976269-15.773492-20.315571l-97.77721-141.908379c-2.706806-3.871377-4.980372-7.140259-6.825749-9.807909-1.845377-2.670176-3.630126-5.438874-5.350457-8.306093-1.72412-2.871008-3.015-5.604339-3.873903-8.206308-0.861429-2.601969-1.29088-5.172361-1.29088-7.706124 0-9.876116 2.920269-17.683287 8.763332-23.418988 5.840537-5.738227 14.603869-8.605445 26.288732-8.605445l92.611164 0 0-37.229635c0-10.007477 2.121994-17.58224 6.36472-22.716708s9.806646-7.706124 16.695549-7.706124c7.01016 0 12.605658 2.502185 16.789018 7.505292 4.179571 5.00437 6.272515 12.641024 6.272515 22.91754l0 37.229635 11.254149 0c9.345617 0 16.355777 1.765803 21.030481 5.303723 4.67344 3.534131 7.01016 9.172574 7.01016 16.912801C729.692 260.48859 726.833623 266.62848 721.114343 269.431281zM644.275408 273.633587l-79.328489 0 79.328489 116.289085L644.275408 273.633587z"  horiz-adv-x="1024" />

    
    <glyph glyph-name="truck" unicode="&#58892;" d="M187.984 518.187h189.982v122.595h634.756v-612.981h-158.086c-13.687-52.714-61.194-91.892-118.25-91.892-57.066 0-104.426 39.178-118.244 91.892h-275.636c-13.603-52.714-61.195-91.892-118.205-91.892-57.061 0-104.495 39.178-118.168 91.892h-96.297v275.847l178.149 214.539zM736.413-23.669c45.356 0 82.055 36.885 82.055 82.093 0 45.367-36.698 82.047-82.055 82.047-45.195 0-82.067-36.679-82.067-82.047-0.001-45.208 36.872-82.093 82.067-82.093zM422.152 89.219h195.989c13.818 52.698 61.178 91.799 118.244 91.799 57.056 0 104.563-39.101 118.25-91.799h114.028l-0 509.578h-546.511v-509.578zM224.3-22.138c44.394 0 80.565 36.106 80.565 80.561 0 44.558-36.171 80.585-80.565 80.585-44.433 0-80.526-36.028-80.526-80.585-0-44.454 36.093-80.561 80.526-80.561zM56.244 150.419v-61.2h49.887c13.673 52.698 61.107 91.799 118.168 91.799 57.010 0 104.602-39.101 118.205-91.799h34.973l0 379.070h-160.747l-160.486-186.742v-131.129zM255.030 395.676l-91.975-122.629h153.223l-0 122.629h-61.248z"  horiz-adv-x="1024" />

    
    <glyph glyph-name="icon" unicode="&#58901;" d="M792.119839-149.082018 232.249575-149.082018c-61.84044 0-111.971188 50.125631-111.971188 111.971188L120.278387 522.75534c0 61.845557 50.130747 111.979374 111.971188 111.979374l83.980693 0 0 55.984059 75.403341 0c24.245194 33.332153 68.877717 55.990199 120.55161 55.990199 51.67594 0 96.308463-22.658046 120.553657-55.990199l75.400271 0 0-55.984059 83.980693 0c61.84044 0 111.974257-50.133817 111.974257-111.979374l0-559.867194C904.093073-98.957411 853.960279-149.082018 792.119839-149.082018zM652.152017 634.735737l-62.206784 0c0 30.919197-34.812877 55.984059-77.760015 55.984059-42.945091 0-77.760015-25.064862-77.760015-55.984059l-62.204737 0 0-111.979374 279.93155 0L652.152017 634.735737zM848.105944 522.75534c0 30.919197-25.065885 55.990199-55.987129 55.990199l-83.980693 0 0-111.974257L316.230268 466.771281 316.230268 578.745539l-83.980693 0c-30.921243 0-55.984059-25.071002-55.984059-55.990199l0-559.867194c0-30.919197 25.062815-55.990199 55.984059-55.990199l559.869241 0c30.921243 0 55.987129 25.071002 55.987129 55.990199L848.105944 522.75534zM708.139146 18.876298 316.230268 18.876298c-15.461133 0-27.990494 12.532431-27.990494 27.993564 0 15.461133 12.530384 27.996634 27.990494 27.996634l391.908878 0c15.461133 0 27.993564-12.535501 27.993564-27.996634C736.13271 31.408729 723.600279 18.876298 708.139146 18.876298zM708.139146 158.843096 316.230268 158.843096c-15.461133 0-27.990494 12.535501-27.990494 27.993564 0 15.461133 12.530384 27.996634 27.990494 27.996634l391.908878 0c15.461133 0 27.993564-12.535501 27.993564-27.996634C736.13271 171.378597 723.600279 158.843096 708.139146 158.843096zM708.139146 298.810918 316.230268 298.810918c-15.461133 0-27.990494 12.535501-27.990494 27.990494 0 15.46318 12.530384 27.998681 27.990494 27.998681l391.908878 0c15.461133 0 27.993564-12.535501 27.993564-27.998681C736.13271 311.346419 723.600279 298.810918 708.139146 298.810918z"  horiz-adv-x="1024" />

    
    <glyph glyph-name="shexiangji0" unicode="&#59200;" d="M883.109668 437.015448 724.063325 330.984552c0 32.17991-14.650675 60.658522-37.278022 80.099293 53.899584 32.450063 90.292446 90.959641 90.292446 158.471244 0 102.465696-83.071997 185.55509-185.55509 185.55509s-185.55509-83.089393-185.55509-185.55509c0-51.980885 21.51092-98.863658 55.967686-132.539642l-97.225345 0c25.364691 28.163433 41.256636 65.107857 41.256636 106.030895 0 87.843674-71.213925 159.048389-159.048389 159.048389s-159.047366-71.204715-159.047366-159.048389c0-47.937802 21.636786-90.399893 55.19509-119.572306-32.747845-18.043958-55.19509-52.467979-55.19509-92.489484l0-212.063837c0-58.553581 47.477314-106.030895 106.030895-106.030895l424.128697 0c58.553581 0 106.030895 47.477314 106.030895 106.030895l0 26.508747 159.046343-132.539642c29.280884 0 53.016471 23.706935 53.016471 53.016471l0 318.094732C936.126138 413.290093 912.390551 437.015448 883.109668 437.015448zM140.889309 543.047366c0 58.56279 47.477314 106.031918 106.030895 106.031918S352.952122 601.609133 352.952122 543.047366s-47.478338-106.030895-106.031918-106.030895S140.889309 484.484575 140.889309 543.047366zM671.047878 118.920716c0-29.271674-23.74275-53.015448-53.015448-53.015448L193.903733 65.905268c-29.280884 0-53.015448 23.74275-53.015448 53.015448L140.888286 330.984552c0 29.27986 23.733541 53.015448 53.015448 53.015448l424.128697 0c29.271674 0 53.015448-23.734564 53.015448-53.015448L671.047878 118.920716zM591.523683 436.701293c-73.364915 0-132.845611 59.498092-132.845611 132.85482 0 73.364915 59.480696 132.863007 132.845611 132.863007s132.846634-59.498092 132.846634-132.863007C724.370317 496.199385 664.888598 436.701293 591.523683 436.701293zM883.109668 344.237391l0-243.433288c0-1.39579 0-1.945305 0-1.89107l0-33.008788L724.063325 198.44491l0 53.016471c0 14.027481 0 10.66899 0 26.5067l159.046343 106.031918C883.109668 346.768027 883.109668 366.189356 883.109668 344.237391z"  horiz-adv-x="1024" />

    
    <glyph glyph-name="48xiaoshi" unicode="&#58902;" d="M512 895.97952c-282.76736 0-512-229.23264-512-512C0 101.1712 229.23264-128 512-128c282.80832 0 512 229.1712 512 511.97952C1024 666.74688 794.80832 895.97952 512 895.97952zM512-87.06048c-260.13696 0-471.04 210.88256-471.04 471.04 0 260.13696 210.90304 471.04 471.04 471.04 260.15744 0 471.04-210.90304 471.04-471.04C983.04 123.82208 772.15744-87.06048 512-87.06048zM429.4656 139.85792l-37.19168 0 0 118.5792L148.13184 258.43712l0 25.57952 244.1216 344.10496 37.19168 0 0-344.10496 67.42016 0 0-25.57952L429.4656 258.43712 429.4656 139.85792zM187.67872 284.01664l204.5952 0L392.27392 572.3136 187.67872 284.01664zM634.08128 395.61216c-55.808 23.26528-85.25824 59.65824-88.33024 109.28128 7.72096 80.5888 60.43648 123.98592 158.1056 130.19136 97.64864-7.7824 151.12192-51.95776 160.41984-132.52608-3.11296-49.64352-33.34144-85.27872-90.68544-106.96704l2.33472 0c63.52896-23.26528 96.84992-67.42016 99.96288-132.52608-4.64896-83.70176-61.2352-127.0784-169.71776-130.19136-111.59552 3.11296-169.71776 48.0256-174.3872 134.84032C537.96864 332.84096 572.06784 375.45984 634.08128 395.61216zM703.83616 381.66528c-85.25824-9.29792-128.67584-48.04608-130.19136-116.24448 3.072-68.21888 47.26784-103.81312 132.52608-106.96704 83.70176 1.57696 126.32064 36.41344 127.87712 104.63232C832.47104 332.84096 789.05344 372.36736 703.83616 381.66528zM703.83616 609.52576c-72.88832-4.64896-111.59552-37.9904-116.26496-99.98336 3.072-60.43648 42.61888-94.55616 118.5792-102.2976 74.40384 9.29792 113.11104 42.61888 116.26496 99.98336C817.7664 570.75712 778.24 604.8768 703.83616 609.52576z"  horiz-adv-x="1024" />

    
    <glyph glyph-name="equal" unicode="&#58993;" d="M76.929 591.441h870.143v-128.473h-870.143v128.473zM76.929 341.337h870.143v-128.473h-870.143v128.473zM76.929 341.337z"  horiz-adv-x="1024" />

    
    <glyph glyph-name="zhifubao" unicode="&#58998;" d="M817.2922 268.878405C905.047119 425.658802 936.958 574.600183 936.958 574.600183L921.002559 574.600183 785.381319 574.600183 641.782351 574.600183 641.782351 684.346464 992.802044 684.346464 992.802044 731.380581 641.782351 731.380581 641.782351 896 482.227948 896 482.227948 731.380581 163.119135 731.380581 163.119135 684.346464 482.227948 684.346464 482.227948 574.600183 210.985457 574.600183 210.985457 527.566062 761.448156 527.566062C761.448156 519.727045 761.448156 519.727045 753.470434 511.888023 753.470434 457.014885 713.581835 378.624686 681.670955 315.912526 274.807219 472.692924 155.141414 378.624686 123.230533 362.946642-148.011956 174.810167 107.275092-60.360433 147.163694-52.521414 434.361622-115.233573 617.849188 2.351726 745.492716 151.293107 753.470434 143.454085 761.448156 143.454085 769.425874 143.454085 857.180798 96.419964 1279.999974-99.555533 1279.999974-99.555533L1279.999974 135.615068C1216.178213 135.615068 984.824326 214.005267 817.2922 268.878405L817.2922 268.878405ZM609.871471 198.327223C410.428464-52.521414 171.096855 25.868787 131.208253 41.546825 35.47561 65.063886 3.564729 237.522327 123.230533 292.395466 322.67354 355.107626 498.183388 284.556444 625.826911 221.844284 617.849188 206.166245 609.871471 198.327223 609.871471 198.327223L609.871471 198.327223Z"  horiz-adv-x="1280" />

    
    <glyph glyph-name="iconfonticonfontweibo" unicode="&#58955;" d="M742.793922 394.31902c-37.302581 7.258311-19.153222 27.39493-19.153222 27.39493s36.499285 60.337203-7.225565 104.204293c-54.219879 54.329373-185.940876-6.912433-185.940876-6.912433-50.319036-15.652492-36.95875 7.142677-29.847795 45.936215 0 45.705971-15.626909 123.060757-149.640112 77.370135C217.115388 596.374922 102.139773 435.426253 102.139773 435.426253 22.20114 328.475406 32.809755 245.816824 32.809755 245.816824 52.765249 63.337793 246.159888 13.245931 396.574642 1.389906c158.243047-12.447497 371.851053 54.689576 436.59359 192.612832C897.938398 332.155215 780.239765 386.831488 742.793922 394.31902zM408.302755 52.844811c-157.124574-7.358595-284.114826 71.620178-284.114826 176.73112 0 105.223506 126.990253 189.609429 284.114826 196.86774 157.182902 7.258311 284.428981-57.679677 284.428981-162.687266C692.731736 158.659789 565.484633 60.002838 408.302755 52.844811zM376.934327 357.136166c-157.983127-18.541285-139.747811-166.926824-139.747811-166.926824s-1.605567-46.986127 42.37818-70.918189c92.439342-50.205449 187.631378-19.805068 235.743142 42.459021C563.419602 224.043938 535.206026 375.548514 376.934327 357.136166zM337.080643 148.870842c-29.475312-3.464915-53.273321 13.582343-53.273321 38.33305 0 24.636097 21.131273 50.434669 50.635237 53.526077 33.889855 3.232624 55.968709-16.343223 55.968709-41.092907C390.411269 175.000965 366.49865 152.220123 337.080643 148.870842zM430.2363 228.425735c-10.005888-7.487531-22.278399-6.452969-27.554566 2.53166-5.504364 8.751315-3.440355 22.795169 6.652514 30.167067 11.697413 8.741082 23.882943 6.222725 29.15911-2.542916C443.798177 249.612267 440.013991 236.144534 430.2363 228.425735zM819.751664 458.567299c12.728906 0 23.566742 9.44307 25.3739 21.760606 0.230244 0.919952 0.344854 1.724271 0.344854 2.759857 19.296485 173.956937-142.187373 144.017044-142.187373 144.017044-14.335497 0-25.805736-11.627828-25.805736-26.130124 0-14.273075 11.470239-25.900903 25.805736-25.900903 116.009154 25.670659 90.406033-90.607624 90.406033-90.607624C793.688055 470.079494 805.356816 458.567299 819.751664 458.567299zM800.94125 762.196575c-55.855122 13.108552-113.255437 1.811252-129.340787-1.279133-1.233084-0.115634-2.409886-1.294482-3.555989-1.523703-0.545422-0.115634-0.889253-0.689708-0.889253-0.689708-15.885805-4.499477-27.469632-19.216667-27.469632-36.608779 0-20.726044 16.745383-37.772278 37.676088-37.772278 0 0 20.300348 2.730181 34.090423 8.135284 13.676487 5.519714 129.283482 4.110621 186.743148-92.590791 31.311123-70.571289 13.762445-117.800963 11.583826-125.389802 0 0-7.454786-18.340717-7.454786-36.391838 0-20.842701 16.744359-33.935903 37.502126-33.935903 17.375739 0 31.94148 2.373047 36.213783 31.807427l0.230244 0C1037.947152 642.009262 900.834354 738.827331 800.94125 762.196575z"  horiz-adv-x="1024" />

    
    <glyph glyph-name="shandian" unicode="&#983154;" d="M512.793574 892.504386c-281.038768 0-508.86766-227.827869-508.86766-508.869706s227.828892-508.86766 508.86766-508.86766c281.041838 0 508.87073 227.826845 508.87073 508.86766S793.835412 892.504386 512.793574 892.504386zM512.793574-104.681922c-269.689279 0-488.316601 218.625276-488.316601 488.316601 0 269.691325 218.627323 488.318648 488.316601 488.318648 269.692349 0 488.319671-218.626299 488.319671-488.318648C1001.113245 113.944378 782.485923-104.681922 512.793574-104.681922zM534.669814 466.528622l124.341936 0L361.972567 109.620909l99.014084 251.317862L350.460372 360.938772l110.526279 296.711725 214.145242 0L534.669814 466.528622z"  horiz-adv-x="1024" />

    
    <glyph glyph-name="zhengpinxinghuopiao" unicode="&#58900;" d="M401.395 262.493l28.56-31.675c-50.199-30.807-100.738-59.886-151.627-87.237-5.887 10.385-13.331 22.503-22.329 36.349C311.732 205.893 360.198 233.414 401.395 262.493zM264.308 306.111l503.69 0 0-32.194L540.559 273.917l0-68.543c0-40.848-20.252-61.444-60.755-61.793-18.349 0-41.022 0.174-68.024 0.518-1.388 11.425-3.635 25.1-6.751 41.022 26.308-2.422 47.423-3.635 63.351-3.635 21.809 0 32.714 10.734 32.714 32.194l0 60.235L264.308 273.915 264.308 306.111zM301.175 543.936l129.817 0 0 48.292L273.654 592.228l0 32.194 483.958 0 0-32.194L599.236 592.228l0-48.292 130.336 0L729.572 399.58l-36.349 0 0 16.616L337.524 416.196l0-16.616-36.348 0L301.175 543.936 301.175 543.936zM301.696 377.251l428.915 0 0-32.193L301.695 345.058 301.696 377.251 301.696 377.251zM337.524 447.352l93.468 0 0 65.428-93.468 0L337.524 447.352zM468.381 543.936l93.468 0 0 48.292-93.468 0L468.381 543.936zM468.381 447.352l93.468 0 0 65.428-93.468 0L468.381 447.352zM589.369 227.701l21.809 32.194c48.811-23.541 100.044-49.331 153.704-77.371l-24.406-38.426C686.124 175.948 635.756 203.815 589.369 227.701zM693.223 512.779l-93.987 0 0-65.428 93.987 0L693.223 512.779 693.223 512.779zM512 839.68c251.264 0 455.68-204.416 455.68-455.68s-204.416-455.68-455.68-455.68-455.68 204.416-455.68 455.68S260.736 839.68 512 839.68M512 870.4C243.36896 870.4 25.6 652.63104 25.6 384s217.76896-486.4 486.4-486.4 486.4 217.76896 486.4 486.4S780.63104 870.4 512 870.4L512 870.4z"  horiz-adv-x="1024" />

    
    <glyph glyph-name="guanzhu" unicode="&#59069;" d="M512 685.176471c232.508235 0 421.647059-135.107765 421.647059-301.176471s-189.138824-301.176471-421.647059-301.176471S90.352941 217.931294 90.352941 384 279.491765 685.176471 512 685.176471M512 745.411765C245.76 745.411765 30.117647 583.68 30.117647 384s215.642353-361.411765 481.882353-361.411765 481.882353 161.731765 481.882353 361.411765S778.24 745.411765 512 745.411765L512 745.411765zM512 640c-133.12 0-240.941176-107.821176-240.941176-240.941176s107.821176-240.941176 240.941176-240.941176 240.941176 107.821176 240.941176 240.941176S645.12 640 512 640zM512 218.352941c-99.84 0-180.705882 80.865882-180.705882 180.705882s80.865882 180.705882 180.705882 180.705882c1.415529 0 2.800941-0.180706 4.216471-0.210824-26.383059-22.106353-43.489882-54.874353-43.489882-91.979294 0-66.56 53.910588-120.470588 120.470588-120.470588 40.779294 0 76.649412 20.359529 98.454588 51.350588C692.314353 412.069647 692.705882 405.624471 692.705882 399.058824 692.705882 299.218824 611.84 218.352941 512 218.352941z"  horiz-adv-x="1024" />

    
    <glyph glyph-name="diannao" unicode="&#59091;" d="M1024.41472 283.99616c0 1.17248-0.08192 2.33472-0.20992 3.47648L1024.2048 824.32c0 39.5264-32.1536 71.68-71.68 71.68L71.8848 896C32.3584 896 0.2048 863.8464 0.2048 824.32l0-536.86272c-0.128-1.13664-0.20992-2.28864-0.20992-3.46112s0.08192-2.32448 0.20992-3.46112l0-120.96c0-39.5264 32.1536-71.68 71.68-71.68l355.584 0L427.4688-25.6 360.84736-25.6c-41.55904 0-75.25376-33.69472-75.25376-75.25376L285.5936-128l453.22752 0 0 27.14624c0 41.55904-33.6896 75.25376-75.25888 75.25376l-67.1232 0 0 113.49504L952.5248 87.89504c39.5264 0 71.68 32.1536 71.68 71.68l0 120.94464C1024.3328 281.66144 1024.41472 282.81856 1024.41472 283.99616zM71.8848 834.56l880.64 0c5.64736 0 10.24-4.59264 10.24-10.24l0-509.60384L61.6448 314.71616 61.6448 824.32C61.6448 829.96736 66.23232 834.56 71.8848 834.56zM952.5248 149.33504 71.8848 149.33504c-5.65248 0-10.24 4.59264-10.24 10.24l0 93.70112 901.12 0 0-93.70112C962.7648 153.92768 958.17216 149.33504 952.5248 149.33504zM512.2048 205.45536m-33.93024 0a6.627 6.627 0 1 0 67.86048 0 6.627 6.627 0 1 0-67.86048 0Z"  horiz-adv-x="1025" />

    
    <glyph glyph-name="daifahuo" unicode="&#58899;" d="M798.525736 706.339406l-573.051471 0c-39.561018 0-71.631434-32.070416-71.631434-71.631434l0-107.447151c0-26.446325 14.494109-49.288566 35.815717-61.697177l0-332.271616c0-39.559994 32.070416-71.631434 71.631434-71.631434l501.420037 0c39.559994 0 71.631434 32.07144 71.631434 71.631434L834.341452 465.564667c21.320585 12.407588 35.815717 35.249829 35.815717 61.696154l0 107.447151C870.157169 674.26899 838.08573 706.339406 798.525736 706.339406zM798.525736 133.292028c0-19.748786-16.066931-35.815717-35.815717-35.815717l-501.420037 0c-19.74981 0-35.815717 16.066931-35.815717 35.815717L225.474264 455.629387l143.262868 0 0-107.443058c0-39.559994 32.070416-71.631434 71.631434-71.631434l143.262868 0c39.559994 0 71.631434 32.07144 71.631434 71.631434L655.262868 455.629387l143.262868 0L798.525736 133.292028zM404.552849 455.629387l214.894302 0 0-107.443058c0-19.748786-16.066931-35.815717-35.815717-35.815717l-143.262868 0c-19.74981 0-35.815717 16.066931-35.815717 35.815717L404.552849 455.629387zM834.341452 527.260821c0-19.73446-16.045441-35.787064-35.771715-35.811624L655.262868 491.449197l-286.525736 0L225.430262 491.449197c-19.727297 0.023536-35.771715 16.077164-35.771715 35.811624l0 107.447151c0 19.748786 16.065907 35.815717 35.815717 35.815717l573.051471 0c19.748786 0 35.815717-16.066931 35.815717-35.815717L834.341452 527.260821z"  horiz-adv-x="1024" />

    
    <glyph glyph-name="weixin" unicode="&#58926;" d="M499.610832 539.392116c22.943548 0 38.639019 15.69854 38.639019 38.639019 0 22.943548-15.093766 38.037315-38.639019 38.037315-22.940478 0-45.880957-15.093766-45.880957-38.037315C453.728852 555.090657 476.670354 539.392116 499.610832 539.392116L499.610832 539.392116 499.610832 539.392116zM499.610832 539.392116M284.687878 616.06845c-22.943548 0-46.488801-15.093766-46.488801-38.037315 0-22.940478 23.545252-38.639019 46.488801-38.639019 22.940478 0 38.033221 15.69854 38.033221 38.639019C323.322803 600.974683 307.628356 616.06845 284.687878 616.06845L284.687878 616.06845 284.687878 616.06845zM284.687878 616.06845M958.439842 294.284699c0 121.343649-112.293529 224.582965-250.54322 235.4515l0 4.831029c-27.770484 128.58968-166.626995 225.789443-323.597049 225.789443-176.287005 0-320.576249-123.157971-320.576249-274.694269 0-81.503269 41.655725-154.551982 120.140241-212.506928l-27.16878-82.709747c-1.809205-5.435803 0-11.474332 4.228301-15.095813 2.416026-2.411933 6.03853-3.619434 9.055237-3.619434 2.415003 0 4.224208 0.602727 6.03853 1.207501l103.234199 52.521191 12.67774-2.411933c31.998785-6.643304 59.167564-12.075013 92.975555-12.075013 9.657964 0 19.923772 0.601704 29.580712 1.207501 4.228301 0.602727 7.245008 2.415003 9.660011 5.431709 36.82572-92.971461 139.462309-159.986761 259.602549-159.986761 30.788214 0 62.181201 7.245008 89.951685 14.490016l79.090313-43.468001c1.809205-1.207501 4.224208-1.809205 6.639211-1.809205 3.016707 0 6.03853 1.207501 9.055237 3.016707 4.228301 3.622504 6.037507 9.660011 4.830005 15.092743l-20.524452 67.617004C921.009348 165.690926 958.439842 230.286106 958.439842 294.284699L958.439842 294.284699 958.439842 294.284699zM412.07108 239.948163c-9.055237-0.602727-18.110473-1.207501-27.16571-1.207501-30.791284 0-56.751538 5.431709-86.938048 11.470239l-17.507746 3.622504c-3.016707 0.605797-6.03853 0-9.055237-1.207501l-77.277014-38.639019 19.922748 60.375066c1.813299 6.034437 0 12.071943-5.431709 15.694447-77.277014 54.336536-116.517737 120.140241-116.517737 195.60498 0 136.444579 131.005706 246.924809 292.199968 246.924809 143.083789 0 269.258467-86.938048 295.219745-202.248284-149.724023-1.810229-270.465968-106.857726-270.465968-236.053204 0-18.715247 3.016707-36.829813 7.846712-54.336536L412.07108 239.948163 412.07108 239.948163 412.07108 239.948163zM828.63959 128.862135c-4.831029-3.622504-6.640234-9.656941-4.831029-15.092743l13.283538-44.071751-54.334489 29.583782c-1.812275 1.207501-4.228301 1.809205-6.643304 1.809205-1.207501 0-2.415003 0-3.622504-0.601704-28.977985-7.246031-59.163471-15.093766-88.744183-15.093766-136.444579 0-246.924809 93.574189-246.924809 208.888518 0 115.310236 110.48023 208.28272 246.924809 208.28272 133.420709 0 246.315942-95.387487 246.315942-208.28272C930.670381 236.930433 894.446365 177.762869 828.63959 128.862135L828.63959 128.862135 828.63959 128.862135zM828.63959 128.862135M599.225597 393.897418c-15.092743 0-30.79026-15.69547-30.79026-30.788214 0-15.69854 15.092743-30.791284 30.79026-30.791284 22.940478 0 38.033221 15.093766 38.033221 30.791284C637.864616 378.200924 622.166075 393.897418 599.225597 393.897418L599.225597 393.897418 599.225597 393.897418zM599.225597 393.897418M767.665891 393.897418c-15.093766 0-30.189579-15.69547-30.189579-30.788214 0-15.69854 15.095813-30.791284 30.189579-30.791284 22.940478 0 38.634926 15.093766 38.634926 30.791284C806.300816 378.200924 791.208073 393.897418 767.665891 393.897418L767.665891 393.897418 767.665891 393.897418zM767.665891 393.897418"  horiz-adv-x="1024" />

    
    <glyph glyph-name="wujiaoxing" unicode="&#58923;" d="M1024 504.874667 638.677333 513.109333 512.042667 896 385.408 513.109333 0 504.874667 307.2 259.968 195.626667-128 512.042667 103.552 828.501333-128 716.8 259.968Z"  horiz-adv-x="1024" />

    
    <glyph glyph-name="kefu1" unicode="&#59436;" d="M367.037421 377.995239m-57.762565 0a56.447 56.447 0 1 0 115.52513 0 56.447 56.447 0 1 0-115.52513 0ZM657.775084 377.995239m-57.762565 0a56.447 56.447 0 1 0 115.52513 0 56.447 56.447 0 1 0-115.52513 0ZM985.823516 388.184299C955.664635 648.169565 754.856144 849.719954 512.405229 849.719954S69.146846 648.169565 38.987966 388.184299c-21.85475-5.221932-38.234813-24.964578-38.234813-48.359404l0-88.972381c0-27.347858 22.375613-49.722448 49.722448-49.722448l0 0c22.523993 0 41.662889 15.184841 47.717791 35.818787l23.14821-6.782473c48.158836-170.624029 205.240431-296.03225 391.063627-296.03225 224.014007 0 406.262794 182.248787 406.262794 406.262794s-182.248787 406.262794-406.262794 406.262794-406.262794-182.248787-406.262794-406.262794c0-25.879414 2.437515-51.201126 7.085372-75.749218l-13.030781 3.817955 0 71.360258c0 20.537755-12.619412 38.268582-30.486338 45.826721 28.774347 244.171092 216.33 433.261705 442.693518 433.261705s413.919171-189.090613 442.693518-433.262728c-17.865903-7.559163-30.485315-25.289989-30.485315-45.826721l0-88.972381c0-27.347858 22.375613-49.722448 49.722448-49.722448l0 0c27.347858 0 49.722448 22.375613 49.722448 49.722448l0 88.972381C1024.059352 363.219721 1007.678266 382.963391 985.823516 388.184299zM136.950092 340.3959c0 31.79924 3.979638 62.685691 11.456936 92.192725 214.038818 4.545526 371.446847 70.368674 470.874347 129.859603 61.675688-55.697533 145.632845-105.509009 252.462942-113.12036 10.475586-34.490535 16.117073-71.064522 16.117073-108.932991 0-207.027124-168.429037-375.456161-375.456161-375.456161-164.849512 0-305.22461 106.792235-355.579461 254.828826l284.85263-83.461877c0.823761-26.625404 22.651906-47.960315 49.476855-47.960315 27.346835 0 49.51574 22.168905 49.51574 49.51574s-22.168905 49.51574-49.51574 49.51574c-16.946974 0-31.899524-8.519024-40.825824-21.502733l-303.535131 88.935542C140.358725 282.310993 136.950092 310.962543 136.950092 340.3959z"  horiz-adv-x="1025" />

    
    <glyph glyph-name="baozheng" unicode="&#59029;" d="M503.017544 869.124491c-272.258246 0-492.975158-220.752842-492.975158-492.975158 0-272.276211 220.698947-492.975158 492.975158-492.975158 272.276211 0 492.975158 220.698947 492.975158 492.975158C995.992702 648.371649 775.275789 869.124491 503.017544 869.124491zM503.017544-72.021333c-247.125333 0-448.152702 201.063298-448.152702 448.170667C54.864842 623.238737 255.892211 824.32 503.017544 824.32s448.152702-201.063298 448.152702-448.152702S750.142877-72.021333 503.017544-72.021333zM707.332491 238.55607c-10.31186 5.479298-21.414175 12.791018-33.306947 21.971088-11.910737 9.18007-24.144842 19.869193-36.684351 32.103298-9.988491 9.665123-20.44407 20.587789-31.384702 32.83986-10.940632 12.234105-21.234526 24.629895-30.899649 37.169404l131.808561 0c11.910737 0 17.857123 6.10807 17.857123 18.342175 0 12.557474-5.964351 18.827228-17.857123 18.827228l-142.425825 0 0 39.594667 74.841825 0c13.509614 0 23.336421 3.215719 29.444491 9.647158 6.10807 6.431439 9.18007 17.210386 9.18007 32.354807l0 78.219228c0 15.126456-2.982175 25.833544-8.928561 32.103298-5.964351 6.287719-15.863018 9.413614-29.696 9.413614L452.392421 601.141895c-13.509614 0-23.498105-3.215719-29.929544-9.665123-6.449404-6.449404-9.647158-16.904982-9.647158-31.384702l0-78.686316c0-15.126456 3.054035-25.923368 9.18007-32.354807 6.10807-6.449404 16.240281-9.647158 30.414596-9.647158l74.841825 0 0-39.594667-143.39593 0c-5.784702 0-10.132211-1.455158-13.042526-4.347509-2.892351-2.892351-4.347509-8.371649-4.347509-16.41993 0-10.940632 5.802667-16.41993 17.390035-16.41993l126.976 0c-9.341754-12.557474-19.150596-24.629895-29.444491-36.217263-10.31186-11.587368-21.090807-22.528-32.354807-32.83986-12.880842-11.910737-25.114947-22.204632-36.702316-30.899649-11.587368-8.695018-22.204632-15.449825-31.869754-20.282386-9.988491-4.509193-17.390035-9.485474-22.204632-14.964772L358.256281 488.645614c4.509193 10.293895 8.605193 20.767439 12.305965 31.384702 3.700772 10.617263 7.006316 21.072842 9.898667 31.384702 6.754807 23.174737 10.132211 38.301193 10.132211 45.379368 0 15.449825-6.126035 23.174737-18.342175 23.174737-9.665123 0-16.743298-9.503439-21.252491-28.492351-7.401544-34.438737-17.300211-66.56-29.696-96.32786-12.395789-29.76786-28.564211-59.625544-48.523228-89.555088-4.185825-6.10807-6.934456-11.587368-8.209965-16.41993-1.293474-4.832561-1.527018-8.928561-0.718596-12.305965 0.790456-3.377404 2.335439-6.126035 4.581053-8.209965 2.245614-2.101895 4.832561-3.467228 7.724912-4.096l0.485053-0.485053c3.539088 0 6.916491 0.646737 10.132211 1.922246 3.215719 1.293474 6.431439 3.054035 9.647158 5.317614 3.215719 2.892351 9.485474 12.395789 18.827228 28.492351l3.377404 6.754807 0-0.485053c0 0.323368 0.485053 0.970105 1.455158 1.940211l0-230.310175c0-12.862877 6.269754-19.312281 18.827228-19.312281 12.862877 0 19.312281 6.449404 19.312281 19.312281l0 26.067088c1.598877-1.598877 3.377404-2.892351 5.317614-3.862456 1.922246-0.970105 4.347509-1.455158 7.23986-1.455158 11.910737 0 37.331088 15.126456 76.279018 45.379368 14.803088 11.910737 29.049263 24.935298 42.720561 39.109614 13.671298 14.156351 26.138947 28.797754 37.420912 43.942175l0-151.120842c0-12.234105 6.10807-18.342175 18.342175-18.342175 12.557474 0 18.827228 6.126035 18.827228 18.342175l0 143.880982c12.234105-16.096561 25.114947-31.133193 38.624561-45.145825 13.509614-13.994667 27.198877-26.641965 41.03186-37.905965 17.048702-13.832982 31.384702-24.378386 42.97207-31.618246 11.587368-7.23986 20.120702-10.868772 25.582035-10.868772 6.10807 0 10.689123 2.335439 13.761123 7.006316 3.054035 4.670877 4.581053 8.784842 4.581053 12.305965C730.974316 220.537263 723.087719 228.908912 707.332491 238.55607zM458.195088 476.591158c-5.15593 0-7.724912 3.215719-7.724912 9.647158l0 68.554105c0 6.431439 2.568982 9.647158 7.724912 9.647158l174.295579 0c5.137965 0 7.724912-3.215719 7.724912-9.647158l0-68.554105c0-6.449404-2.586947-9.647158-7.724912-9.647158L458.195088 476.591158z"  horiz-adv-x="1024" />

    
    <glyph glyph-name="jia" unicode="&#58928;" d="M921.6 400.384 778.24 543.744 778.24 744.448c0 12.288-8.192 20.48-20.48 20.48l-114.688 0c-12.288 0-20.48-8.192-20.48-20.48l0-49.152-98.304 98.304c-4.096 4.096-8.192 4.096-12.288 4.096s-8.192-4.096-12.288-4.096l-397.312-397.312c-4.096-4.096-4.096-8.192-4.096-12.288 0-12.288 8.192-20.48 20.48-20.48 4.096 0 8.192 4.096 12.288 4.096l81.92 81.92 0-462.848c0-12.288 8.192-20.48 20.48-20.48l188.416 0 188.416 0 188.416 0c12.288 0 20.48 8.192 20.48 20.48L819.2 453.632l81.92-81.92c4.096-4.096 8.192-4.096 12.288-4.096 12.288 0 20.48 8.192 20.48 20.48C925.696 392.192 925.696 396.288 921.6 400.384zM663.552 723.968 737.28 723.968l0-143.36-73.728 73.728L663.552 723.968zM401.408 7.168 401.408 7.168 249.856 7.168l0 36.864 151.552 0L401.408 7.168zM585.728 7.168l-151.552 0 0 303.104 151.552 0L585.728 7.168zM774.144 7.168l-151.552 0 0 36.864 151.552 0L774.144 7.168zM774.144 84.992l-151.552 0 0 245.76c0 12.288-8.192 20.48-20.48 20.48l-188.416 0c-12.288 0-20.48-8.192-20.48-20.48l0-245.76L249.856 84.992 249.856 490.496l262.144 262.144 262.144-262.144L774.144 84.992zM532.48 138.24m-20.48 0a0.5 0.5 0 1 0 40.96 0 0.5 0.5 0 1 0-40.96 0Z"  horiz-adv-x="1024" />

    
    <glyph glyph-name="shezhi" unicode="&#59354;" d="M512 176C626.875227 176 720 269.124773 720 384 720 498.875227 626.875227 592 512 592 397.124773 592 304 498.875227 304 384 304 269.124773 397.124773 176 512 176L512 176 512 176ZM512 208C414.797885 208 336 286.797885 336 384 336 481.202115 414.797885 560 512 560 609.202115 560 688 481.202115 688 384 688 286.797885 609.202115 208 512 208L512 208ZM446.325549 685.823376 459.471517 781.835697C460.817018 791.662636 470.266941 800 479.969622 800L544.030378 800C553.710272 800 563.179912 791.685063 564.528483 781.835697L577.674451 685.823376C578.873165 677.068504 586.942141 670.943026 595.697014 672.141739 604.451888 673.340453 610.577366 681.409429 609.378651 690.164302L596.232685 786.176623C592.720154 811.830592 569.749802 832 544.030378 832L479.969622 832C454.194685 832 431.272432 811.776432 427.767315 786.176623L414.621349 690.164302C413.422634 681.409429 419.548112 673.340453 428.302986 672.141739 437.057859 670.943026 445.126835 677.068504 446.325549 685.823376L446.325549 685.823376ZM678.982507 643.860206 756.169072 702.455566C764.069181 708.452848 776.646693 707.66615 783.507523 700.805318L828.805318 655.507523C835.650037 648.662805 836.466536 636.08721 830.455566 628.169072L771.860206 550.982507C766.517194 543.944258 767.891456 533.907262 774.929704 528.564251 781.967954 523.22124 792.004949 524.595501 797.34796 531.63375L855.94332 608.820315C871.59968 629.444146 869.619114 659.948562 851.432736 678.134941L806.134941 723.432736C787.909309 741.658368 757.400605 743.566627 736.820315 727.94332L659.63375 669.34796C652.595501 664.004949 651.22124 653.967954 656.564251 646.929704 661.907262 639.891456 671.944258 638.517194 678.982507 643.860206L678.982507 643.860206 678.982507 643.860206ZM813.823376 449.674451 909.835698 436.528483C919.662635 435.182982 928 425.733059 928 416.030378L928 351.969622C928 342.289728 919.685064 332.820088 909.835698 331.471517L813.823376 318.325549C805.068504 317.126835 798.943026 309.057859 800.141739 300.302986 801.340453 291.548112 809.409429 285.422634 818.164302 286.621349L914.176624 299.767315C939.830592 303.279846 960 326.250198 960 351.969622L960 416.030378C960 441.805315 939.776432 464.727568 914.176624 468.232685L818.164302 481.378651C809.409429 482.577366 801.340453 476.451888 800.141739 467.697014 798.943026 458.942141 805.068504 450.873165 813.823376 449.674451L813.823376 449.674451 813.823376 449.674451ZM771.860206 217.017493 830.455566 139.830928C836.452848 131.930819 835.66615 119.353307 828.805318 112.492477L783.507523 67.194682C776.662805 60.349963 764.08721 59.533464 756.169072 65.544434L678.982507 124.139794C671.944258 129.482806 661.907262 128.108544 656.564251 121.070296 651.22124 114.032046 652.595501 103.995051 659.63375 98.65204L736.820315 40.05668C757.444146 24.40032 787.948562 26.380886 806.134941 44.567264L851.432736 89.865059C869.658368 108.090691 871.566627 138.599395 855.94332 159.179685L797.34796 236.36625C792.004949 243.404499 781.967954 244.77876 774.929704 239.435749 767.891456 234.092738 766.517194 224.055742 771.860206 217.017493L771.860206 217.017493 771.860206 217.017493ZM577.674451 82.176624 564.528483-13.835698C563.182982-23.662635 553.733059-32 544.030378-32L479.969622-32C470.289728-32 460.820088-23.685064 459.471517-13.835698L446.325549 82.176624C445.126835 90.931496 437.057859 97.056974 428.302986 95.858261 419.548112 94.659547 413.422634 86.590571 414.621349 77.835698L427.767315-18.176624C431.279846-43.830592 454.250198-64 479.969622-64L544.030378-64C569.805315-64 592.727568-43.776432 596.232685-18.176624L609.378651 77.835698C610.577366 86.590571 604.451888 94.659547 595.697014 95.858261 586.942141 97.056974 578.873165 90.931496 577.674451 82.176624L577.674451 82.176624 577.674451 82.176624ZM345.017493 124.139794 267.830928 65.544434C259.930819 59.547152 247.353307 60.33385 240.492477 67.194682L195.194682 112.492477C188.349963 119.337195 187.533464 131.91279 193.544434 139.830928L252.139794 217.017493C257.482806 224.055742 256.108544 234.092738 249.070296 239.435749 242.032046 244.77876 231.995051 243.404499 226.65204 236.36625L168.05668 159.179685C152.400319 138.555854 154.380886 108.051438 172.567264 89.865059L217.865059 44.567264C236.090691 26.341632 266.599395 24.433373 287.179685 40.05668L364.36625 98.65204C371.404499 103.995051 372.77876 114.032046 367.435749 121.070296 362.092738 128.108544 352.055742 129.482806 345.017493 124.139794L345.017493 124.139794 345.017493 124.139794ZM210.176624 318.325549 114.164303 331.471517C104.337364 332.817018 96 342.266941 96 351.969622L96 416.030378C96 425.710272 104.314937 435.179912 114.164303 436.528483L210.176624 449.674451C218.931496 450.873165 225.056974 458.942141 223.858261 467.697014 222.659547 476.451888 214.590571 482.577366 205.835698 481.378651L109.823377 468.232685C84.169408 464.720154 64 441.749802 64 416.030378L64 351.969622C64 326.194685 84.223568 303.272432 109.823377 299.767315L205.835698 286.621349C214.590571 285.422634 222.659547 291.548112 223.858261 300.302986 225.056974 309.057859 218.931496 317.126835 210.176624 318.325549L210.176624 318.325549 210.176624 318.325549ZM357.170936 674.810206 287.179685 727.94332C266.555854 743.599681 236.051438 741.619114 217.865059 723.432736L172.567264 678.134941C154.341632 659.909309 152.433373 629.400605 168.05668 608.820315L221.426155 538.517709 194.366107 472.584706C191.011011 464.409864 194.918186 455.063002 203.093029 451.707904 211.26787 448.352808 220.614733 452.259982 223.96983 460.434826L253.664166 532.786387C254.191858 534.072131 254.539901 535.386867 254.719947 536.702725 256.13695 541.431645 255.353282 546.74944 252.139794 550.982507L193.544434 628.169072C187.547152 636.069181 188.33385 648.646693 195.194682 655.507523L240.492477 700.805318C247.337195 707.650037 259.91279 708.466536 267.830928 702.455566L345.017493 643.860206C348.74221 641.032627 353.306766 640.086314 357.571003 640.865157 358.747088 641.054742 359.920299 641.379517 361.070762 641.847854L436.199667 672.431838C444.384051 675.763594 448.317883 685.099267 444.98613 693.283651 441.654376 701.468035 432.318701 705.401869 424.134317 702.070114L357.170936 674.810206 357.170936 674.810206ZM588.514427 672.302501 662.088645 641.654064C670.245762 638.256096 679.613006 642.114147 683.010976 650.271262 686.408944 658.428378 682.550891 667.795624 674.393776 671.193592L600.819558 701.84203C592.662442 705.239998 583.295195 701.381947 579.897227 693.22483 576.499259 685.067715 580.35731 675.700469 588.514427 672.302501L588.514427 672.302501ZM800.536158 306.335803 770.166042 233.438342C766.76773 225.28137 770.625389 215.913962 778.782362 212.51565 786.939334 209.117339 796.306742 212.974997 799.705053 221.131971L830.07517 294.029432C833.47348 302.186405 829.615822 311.553813 821.45885 314.952123 813.301877 318.350434 803.934469 314.492776 800.536158 306.335803L800.536158 306.335803ZM600.066054 65.25972 675.806288 96.954056C683.957907 100.36519 687.800829 109.738654 684.389694 117.890272 680.978558 126.041891 671.605096 129.884813 663.453477 126.473678L587.713243 94.779342C579.561624 91.368208 575.718702 81.994744 579.129838 73.843126 582.540973 65.691507 591.914435 61.848586 600.066054 65.25972L600.066054 65.25972ZM348.590459 96.494237 423.229131 66.012792C431.409795 62.671917 440.74985 66.595341 444.090725 74.776006 447.4316 82.95667 443.508174 92.296723 435.32751 95.637598L360.688838 126.119045C352.508173 129.45992 343.16812 125.536494 339.827245 117.35583 336.48637 109.175165 340.409794 99.835112 348.590459 96.494237L348.590459 96.494237ZM193.729083 295.574083 224.266192 221.564317C227.636606 213.395778 236.990776 209.50613 245.159315 212.876544 253.327854 216.246958 257.217502 225.601128 253.84709 233.769667L223.309979 307.779432C219.939565 315.947971 210.585395 319.837621 202.416856 316.467206 194.248317 313.096792 190.358669 303.742622 193.729083 295.574083L193.729083 295.574083ZM770.884613 532.707702 801.560394 459.560242C804.977824 451.411261 814.354254 447.575581 822.503235 450.993011 830.652216 454.410442 834.487896 463.78687 831.070466 471.935853L800.394683 545.083314C796.977253 553.232294 787.600824 557.067973 779.451843 553.650542 771.302862 550.233112 767.467182 540.856683 770.884613 532.707702L770.884613 532.707702Z"  horiz-adv-x="1024" />

    
    <glyph glyph-name="zu9" unicode="&#58964;" d="M894.41 541.575l-209.97-284.865v569.73l209.97-284.865zM722 446.625c-33.63 8.055-68.79 12.375-105.001 12.375-170.85 0-318.63-95.161-389.775-233.52-0.060 2.835-0.225 5.655-0.225 8.521 0 231.961 194.759 420 435.001 420 20.37 0 40.38-1.455 60-4.080v-203.295zM62-66v450h90v-360h720v360h90v-450h-900z"  horiz-adv-x="1024" />

    
    <glyph glyph-name="gouwuche1" unicode="&#58954;" d="M246.4-16a2.1 2.1 0 1 0 134.4 0 2.1 2.1 0 1 0-134.4 0ZM716.8-16a2.1 2.1 0 1 0 134.4 0 2.1 2.1 0 1 0-134.4 0ZM905.6 131.2l-537.6 0c-28.8 0-57.6 25.6-64 54.4l-96 566.4c-9.6 54.4-60.8 96-115.2 96l-22.4 0c-12.8 0-25.6-12.8-25.6-25.6 0-12.8 12.8-25.6 25.6-25.6l22.4 0c28.8 0 57.6-25.6 64-54.4l96-566.4c9.6-54.4 60.8-96 115.2-96l537.6 0c12.8 0 25.6 12.8 25.6 25.6C931.2 118.4 921.6 131.2 905.6 131.2zM880 716.8l-572.8 0c-12.8 0-25.6-12.8-25.6-25.6 0-12.8 12.8-25.6 25.6-25.6l572.8 0c25.6 0 38.4-16 32-41.6l-70.4-281.6c-6.4-32-41.6-57.6-73.6-60.8l-396.8-28.8c-12.8 0-25.6-12.8-22.4-28.8 0-12.8 12.8-25.6 28.8-22.4l396.8 28.8c54.4 3.2 105.6 48 118.4 99.2l70.4 281.6C976 665.6 937.6 716.8 880 716.8z"  horiz-adv-x="1024" />

    
    <glyph glyph-name="shouji" unicode="&#58913;" d="M511.224242 19.006061l0 33.09899-0.129293 0L511.224242 19.006061 511.224242 19.006061zM742.917172 846.868687 279.531313 846.868687C242.941414 846.868687 213.333333 817.260606 213.333333 780.670707l0-794.375758c0-36.589899 29.608081-66.19798 66.19798-66.19798l463.385859 0c36.589899 0 66.19798 29.608081 66.19798 66.19798L809.115152 780.670707C809.115152 817.260606 779.507071 846.868687 742.917172 846.868687L742.917172 846.868687zM511.224242-14.092929c-36.460606 0-66.19798 29.737374-66.19798 66.19798s29.737374 66.19798 66.19798 66.19798 66.19798-29.737374 66.19798-66.19798S547.684848-14.092929 511.224242-14.092929L511.224242-14.092929zM709.818182 184.888889 312.630303 184.888889 312.630303 747.571717 709.818182 747.571717 709.818182 184.888889 709.818182 184.888889z"  horiz-adv-x="1024" />

    
    <glyph glyph-name="haofangtuo400iconfont2weibolu" unicode="&#59134;" d="M647.532544 164.10624 368.909312 164.10624c-14.138368 0-25.6-11.461632-25.6-25.6s11.461632-25.6 25.6-25.6l278.624256 0c14.138368 0 25.6 11.461632 25.6 25.6S661.670912 164.10624 647.532544 164.10624zM837.059584 732.16 186.940416 732.16C131.85536 732.16 87.04 686.123008 87.04 629.535744l0-414.006272c0-56.587264 44.81536-102.624256 99.900416-102.624256 14.138368 0 25.6 11.461632 25.6 25.6s-11.461632 25.6-25.6 25.6c-26.853376 0-48.700416 23.068672-48.700416 51.424256L138.24 629.535744c0 28.35456 21.84704 51.424256 48.700416 51.424256l650.120192 0C863.91296 680.96 885.76 657.891328 885.76 629.535744l0-414.006272c0-25.347072-17.92512-47.224832-41.696256-50.889728-13.973504-2.154496-23.554048-15.227904-21.399552-29.202432 2.154496-13.973504 15.227904-23.558144 29.202432-21.399552 23.535616 3.629056 45.12768 15.8976 60.798976 34.546688 15.6672 18.642944 24.295424 42.418176 24.295424 66.945024L936.961024 629.535744C936.96 686.123008 892.14464 732.16 837.059584 732.16zM611.46112 209.491968c56.464384 0 102.4 45.935616 102.4 102.4L713.86112 533.174272c0 56.464384-45.935616 102.4-102.4 102.4L292.354048 635.574272c-56.464384 0-102.4-45.935616-102.4-102.4l0-221.282304c0-56.464384 45.935616-102.4 102.4-102.4L611.46112 209.491968zM230.914048 311.891968 230.914048 533.174272c0 33.878016 27.561984 61.44 61.44 61.44L611.46112 594.614272c33.878016 0 61.44-27.561984 61.44-61.44l0-221.282304c0-33.878016-27.561984-61.44-61.44-61.44L292.354048 250.451968C258.476032 250.451968 230.914048 278.013952 230.914048 311.891968zM800.775168 457.059328c26.392576 0 47.865856 22.047744 47.865856 49.147904s-21.47328 49.147904-47.865856 49.147904-47.865856-22.047744-47.865856-49.147904S774.381568 457.059328 800.775168 457.059328zM800.775168 524.635136c9.453568 0 17.145856-8.266752 17.145856-18.427904s-7.692288-18.427904-17.145856-18.427904-17.145856 8.266752-17.145856 18.427904S791.320576 524.635136 800.775168 524.635136zM848.641024 338.859008c0 27.10016-21.47328 49.147904-47.865856 49.147904s-47.865856-22.047744-47.865856-49.147904 21.47328-49.147904 47.865856-49.147904S848.641024 311.758848 848.641024 338.859008zM800.775168 320.431104c-9.453568 0-17.145856 8.266752-17.145856 18.427904s7.692288 18.427904 17.145856 18.427904 17.145856-8.266752 17.145856-18.427904S810.228736 320.431104 800.775168 320.431104zM313.862144 87.04l-64.961536 0c-14.139392 0-25.6-11.460608-25.6-25.6s11.460608-25.6 25.6-25.6l64.961536 0c14.139392 0 25.6 11.460608 25.6 25.6S328.000512 87.04 313.862144 87.04zM767.13984 87.04l-64.961536 0c-14.139392 0-25.6-11.460608-25.6-25.6s11.460608-25.6 25.6-25.6l64.961536 0c14.139392 0 25.6 11.460608 25.6 25.6S781.279232 87.04 767.13984 87.04z"  horiz-adv-x="1024" />

    
    <glyph glyph-name="shouji1" unicode="&#58946;" d="M717 831.5H307c-46.9 0-85-38.1-85-85v-725c0-46.9 38.1-85 85-85h410c46.9 0 85 38.1 85 85v725c0 46.9-38.1 85-85 85z m-149-814c0-30.9-25.1-56-56-56s-56 25.1-56 56 25.1 56 56 56 56-25.1 56-56z m169 102.9c0-13.7-11.1-24.9-24.9-24.9H311.6c-13.6 0-24.6 11-24.6 24.6V746.5c0 11 9 20 20 20h410c11 0 20-9 20-20v-626.1z"  horiz-adv-x="1024" />

    
    <glyph glyph-name="xiangyouxiaosanjiao" unicode="&#58903;" d="M255.4 832.1l511.8-448-511.8-448z"  horiz-adv-x="1024" />

    
    <glyph glyph-name="xiangzuoxiaosanjiao" unicode="&#58918;" d="M767.9-64l-511.8 448 511.8 448z"  horiz-adv-x="1024" />

    
    <glyph glyph-name="daifukuan" unicode="&#58941;" d="M1396.363636 830.836364c9.309091 0 18.618182-9.309091 18.618182-18.618182V-25.6c0-9.309091-9.309091-18.618182-18.618182-18.618182h-1303.272727c-9.309091 0-18.618182 9.309091-18.618182 18.618182V812.218182c0 9.309091 9.309091 18.618182 18.618182 18.618182h1303.272727m0 65.163636h-1303.272727c-55.854545 0-93.090909-37.236364-93.090909-93.090909v-837.818182c0-55.854545 37.236364-93.090909 93.090909-93.090909h1303.272727c55.854545 0 93.090909 37.236364 93.090909 93.090909V802.909091c0 55.854545-37.236364 93.090909-93.090909 93.090909zM1293.963636 439.854545v-121.018181H1079.854545V439.854545h214.109091m18.618182 55.854546h-260.654545c-18.618182 0-37.236364-18.618182-37.236364-37.236364v-167.563636c0-18.618182 18.618182-37.236364 37.236364-37.236364h260.654545c18.618182 0 37.236364 18.618182 37.236364 37.236364V467.781818c0 18.618182-18.618182 27.927273-37.236364 27.927273zM1312.581818 607.418182H176.872727c-18.618182 0-37.236364 18.618182-37.236363 37.236363s18.618182 37.236364 37.236363 37.236364h1135.709091c18.618182 0 37.236364-18.618182 37.236364-37.236364 0-27.927273-18.618182-37.236364-37.236364-37.236363z"  horiz-adv-x="1489" />

    
    <glyph glyph-name="ziyuan" unicode="&#58971;" d="M955.733333 691.2H68.266667a68.266667 68.266667 0 0 1-68.266667-68.266667v-477.866666a68.266667 68.266667 0 0 1 68.266667-68.266667h887.466666a68.266667 68.266667 0 0 1 68.266667 68.266667V622.933333a68.266667 68.266667 0 0 1-68.266667 68.266667z m-287.061333-251.221333l317.44 197.632A34.133333 34.133333 0 0 0 989.866667 622.933333v-473.429333zM36.181333 135.509333A34.133333 34.133333 0 0 0 34.133333 145.066667V622.933333a34.133333 34.133333 0 0 0 3.754667 15.018667l327.68-204.8zM71.68 657.066667h880.64L512 384zM68.266667 110.933333a34.133333 34.133333 0 0 0-7.168 0l334.506666 302.762667L512 342.698667l126.293333 78.848 335.872-304.128A34.133333 34.133333 0 0 0 955.733333 110.933333z"  horiz-adv-x="1024" />

    
    <glyph glyph-name="iconheji-" unicode="&#58919;" d="M919.4 478.53c-16.66 26.955-45.11 41.995-74.507 43.213a25.308 25.308 0 0 1-4.604 0.409l-152.939 0.137c11.653 33.459 16.318 67.09 16.318 104.476 0 24.249-4.306 51.501-14.373 72.853-19.826 42.057-56.547 69.63-99.216 69.63-49.587 0-89.82-40.233-89.82-89.815 0-2.712 0.134-5.419 0.41-8.13-2.71-95.371-77.491-172.72-171.778-179.496v-0.541l-115.56-0.275c-1.223 0.141-2.573 0.275-3.794 0.275-17.066 0-30.887-13.82-30.887-30.887l-0.269-370.783c0-17.067 13.823-30.882 30.888-30.882 1.623 0 3.251 0.133 4.879 0.404h127.07c1.491-0.271 2.984-0.404 4.607-0.404 1.627 0 3.113 0.133 4.604 0.404l428.761-0.135v-0.136c16.796 0 33.871 4.604 49.04 14.223 14.495 9.074 25.331 21.811 32.513 36.034 2.031 2.846 3.522 6.102 4.469 9.618L932 413.37a30.529 30.529 0 0 1 0.949 10.432c1.355 18.694-2.843 37.927-13.549 54.728z m-680.77-47.479l89 0.212v-312.146h-89.226l0.226 311.934z m634.476-2.917a59.015 59.015 0 0 1-0.154-3.854l-64.963-286.594a65.968 65.968 0 0 1-0.805-1.538c-2.678-5.304-6.309-9.416-10.789-12.221l-0.297-0.187a31.44 31.44 0 0 0-14.529-4.803 59.577 59.577 0 0 1-2.359 0.046l-391.58 0.123V442.051c98.773 30.077 169.961 120.037 173.016 227.547a59.961 59.961 0 0 1-0.285 7.791 19.893 19.893 0 0 0-0.101 2.043c0 16.44 13.377 29.815 29.82 29.815 8.159 0 15.989-2.641 23.274-7.85 8.654-6.188 16.147-15.651 21.672-27.37 5.331-11.307 8.643-29.417 8.643-47.264 0-32.388-4.125-59.315-12.98-84.741a59.998 59.998 0 0 1 56.608-79.734l150.587-0.135c1.504-0.177 3.014-0.296 4.527-0.359 10.795-0.447 20.496-5.983 25.951-14.81 0.145-0.234 0.29-0.466 0.438-0.698 4.172-6.546 4.644-13.484 4.306-18.152z"  horiz-adv-x="1024" />

    
    <glyph glyph-name="xinxing" unicode="&#58627;" d="M872.687 372.734l-345.182-345.04-345.043 345.04c-95.34 95.306-95.34 249.809 0 345.112 95.268 95.306 249.702 59.194 345.042-36.11 95.338 95.304 249.835 131.417 345.182 36.11 95.198-95.303 95.198-249.806 0-345.112z"  horiz-adv-x="1024" />

    
    <glyph glyph-name="qq" unicode="&#58882;" d="M166.92 444.62l-1.816 5.593-1.451 7.328-1.015 4.016v16.509l1.745 6.464 1.817 6.892 2.324 7.177 3.16 8.023 4.177 8.334 5.877 8.361v5.86l0.587 5.467 0.864 7.453 2.547 8.316 2.324 9.047 1.852 4.176 2.137 3.874 2.76 4.3 2.983 3.18v20.657l1.737 10.641 1.745 12.35 3.125 14.773 4.292 15.36 3.188 8.486 3.161 9.189 3.446 8.602 4.14 9.18 4.221 10.062 4.853 9.465 5.458 10.062 6.901 10.053 3.152 5.734 3.41 4.746 7.374 10.623 7.55 10.614 8.647 10.917 9.224 10.64 10.027 10.463 10.453 10.775 12.636 11.629 8.067 7.043 9.768 7.604 9.91 6.741 10.748 6.465 10.32 5.734 11.612 4.737 12.35 5.904 12.28 4.015 12.27 4.159 13.222 4.15 13.214 3.16 13.944 2.6 14.087 2.289 13.873 1.87 13.944 1.887 14.817 0.828h43.792l14.594-1.852 14.665-1.745 14.986-1.576 13.856-3.303 14.683-3.135 13.766-3.58 15.066-4.033 13.802-4.88 13.214-5.592 14.087-5.903 12.884-6.465 12.493-7.159 12.252-7.907 10.597-7.32 4.861-4.158 5.156-3.018 9.804-8.326 8.272-8.05 8.21-8.334 8.067-9.189 6.625-8.895 7.836-9.19 5.511-9.892 5.566-8.771 5.921-10.205 4.862-8.895 8.263-18.815 4.078-9.741 3.161-9.047 3.152-9.768 2.832-9.19 2.03-7.898 2.547-9.331 4.514-16.651 2.859-14.506 1.852-14.069 1.603-11.326 2.546-17.23 0.57-2.742 2.03-3.161 5.459-8.905 3.481-6.001 3.126-6.34 3.998-6.732 3.49-8.067 2.235-8.317 2.467-9.038 1.905-9.323 0.855-4.585 0.73-5.619v-4.88l-0.73-4.88v-6.045l-1.451-5.868-2.61-11.344-2.973-5.744-2.182-6.464v-1.576l1.033-2.013 2.956-4.746 12.938-19.1 10.231-14.344 4.88-9.626 6.607-10.471 5.725-11.505 6.625-12.315 6.607-13.801 7.426-15.654 4.177-9.599 3.855-9.34 3.33-9.902 3.286-8.905 2.467-9.331 2.546-8.771 3.188-17.079 2.538-17.515 1.745-15.511v-21.825l-1.158-7.773-1.665-13.339-2.333-12.047-3.552-10.89-1.31-4.453-2.466-5.324-2.101-3.74-2.76-4.586-2.476-2.894-3.134-3.722-2.743-3-2.983-2.592-3.562-1.585-3.205-1.585-2.6-0.855h-4.007l-2.565 0.855-4.924 2.449-2.235 1.585-2.324 1.727-2.564 2.289-2.591 2.573-4.301 4.755-5.067 6.732-3.998 6.918-3.989 5.566-3.9 6.464-5.467 11.496-6.18 11.932-0.721 0.418h-1.015l-2.547-1.879-1.451-3.125-2.396-3.9-4.211-11.63-6.314-16.508-8.13-19.812-6.125-9.91-6.43-10.33-7.577-11.62-8.058-11.37-4.14-5.147-5.023-5.584-11.504-11.361 1.015-1.007 1.567-1.585 5.734-3.437 23.97-11.477 10.446-5.877 9.964-5.744 9.883-7.185 8.78-7.48 4.283-3.321 3.206-3.874 3.25-4.434 2.76-4.889 1.46-4.033 1.817-4.871 0.73-4.14 0.855-4.907-0.855-3.303v-3.268l-0.73-3.49-1.817-3.117-0.73-2.467-1.585-2.974-4.372-5.93-3.989-4.755-3.125-3.544-2.61-2.627-6.606-4.87-7.489-4.177-7.987-4.033-8.504-3.838-9.58-3.704-5.076-1.603-4.595-1.309-11.032-2.573-11.47-2.431-11.46-2.467-12.519-2.003-12.911-0.543-13.232-1.594h-41.031l-14.826 0.864-13.793 1.273-14.799 2.003-14.745 1.594-15.547 2.173-15.03 3.704-14.684 2.912-14.577 4.131-14.986 5.307L569.344-52l-7.702 2.59-6.892 2.476-4.354 1.665-4.292 0.873H533.914l-14.096 1.024-7.15 0.73-9.19 1.006-5.885-5.298-8.059-5.066-10.89-5.316-12.065-6.616-7.328-3.562-7.622-2.867-16.928-6.892-9.189-2.297-9.626-2.61-13.356-2.555-8.352-0.712-8.87-0.73-9.215-1.024-10.748-0.437h-43.907l-24.807 0.437-24.033 2.466-12.2 1.692-11.77 1.736-11.47 1.737-11.477 2.297-10.641 3.446-10.64 2.43-9.59 3.883-9.074 3.562-8.424 4.07-7.337 4.433-7.337 5.29-2.467 2.609-3.267 3.134-2.476 2.76-2.244 3.117-2.039 3.196-1.594 3.135-2.288 6.75-0.828 3.454-1.024 3.882v3.544l1.024 4.052v4.016l0.828 4.042v8.014l0.4 4.328 1.888 4.906 1.594 4.853 2.903 5.895 2.11 2.28 1.746 2.572L161.48 36l3.624 2.903 3.42 2.004 3.16 2.573 5.05 1.603 3.989 2.395 5.013 2.609 5.734 1.7 5.735 1.764 6.616 1.407 6.322 0.872 7.47 0.989 8.068 0.587 2.146 0.73h0.427l1.024 0.873v0.97l-1.451 2.022-4.328 2.012-10.747 9.341-7.195 5.726-8.352 7.319-8.415 8.174-8.789 10.49-10.026 11.77-3.775 6.332-5.013 6.607-4.283 7.622-3.856 8.308-5.218 7.898-3.42 9.047-4.024 9.038-4.043 10.053-2.965 9.616-2.769 11.914-0.873 0.455h-0.828l-0.445 0.854h-1.015l-1.7-0.854-0.873-0.455-1.158-1.994-0.436-2.44-0.873-2.155-1.523-3.58-4.941-8.788-2.547-5.298-4.025-4.595-4.327-5.583-4.72-6.188-5.013-5.467-5.877-5.299-5.485-5.013-5.992-3.909-6.616-4.158-6.314-2.44-7.48-1.86-7.336-0.713h-1.746l-1.674 0.712-1.3 2.894-2.181 1.407-2.832 6.9-1.745 3.74-1.888 5.325-1.558 5.566-0.837 5.476-2.324 12.484-0.873 7.346v24.104l0.873 17.942 1.451 9.19 1.71 9.474 1.558 10.195 2.76 9.474 3.126 10.926 3.197 10.605 4.283 10.926 4.024 10.48 5.566 10.632 5.226 11.46 6.314 10.765 7.453 11.647 7.586 10.472 7.916 11.62 6.607 8.05 8.468 9.331 8.896 9.332 4.14 4.443 5.04 5.031 7.301 6.34 7.49 6.438 12.19 10.917 9.224 6.731z"  horiz-adv-x="1024" />

    
    <glyph glyph-name="shouhou" unicode="&#59073;" d="M513.607 864L126.593 738.664l1.96-488.077 0.441-5.283c0.702-3.213 15.589-80.749 90.057-155.441 57.256-57.587 197.664-132.795 257.58-164.898 9.418-5.06 16.436-8.791 20.468-11.08l14.219-7.868 17.468 9.047c35.022 17.511 213.144 108.233 279.337 174.688 74.543 74.767 89.432 152.302 90.062 155.515l2.437 493.362L513.608 864.002z m325.545-610.052c-2.803-11.379-18.838-67.562-73.137-122.087-55.187-55.48-209.742-136.08-253.664-158.43-2.327 1.217-4.838 2.512-7.495 3.953-52.68 28.22-192.53 103.135-243.579 154.477-54.448 54.598-70.371 110.707-73.179 122.087l-1.772 441.425L513.609 801.426l327.286-106.053-1.741-441.425zM337.533 176.755h53.171v21.068h270.367v-21.068h52.67v146.47H337.533v-146.47z m53.17 109.351h270.368v-52.67H390.703v52.67zM520.117 617.17l11.537-23.075H412.272l23.576 46.65-55.177 6.02c-21.736-53.171-54.341-101.493-97.814-144.966l9.532-31.602 6.02-23.075a701.99 701.99 0 0 1 22.071 23.075c7.022 7.691 13.376 14.882 19.06 21.569v-150.484h51.165v15.55h354.639v37.119H578.809v33.607h144.966v31.101H578.809v33.106h144.966v33.608H578.809v33.106h158.507v35.614H590.343c-3.679 8.695-8.026 17.808-13.043 27.337-5.017 9.532-10.367 18.644-16.052 27.338l-53.171-8.026 12.039-23.575z m7.526-223.217h-136.94v33.608h136.94v-33.608z m0 64.709h-136.94v33.106h136.94v-33.106z m0 66.714h-136.94v33.106h136.94v-33.106z"  horiz-adv-x="1024" />

    
    <glyph glyph-name="zuji" unicode="&#59115;" d="M506.626619 595.374128a24.402783 24.402783 0 0 1-17.415648 7.060813c-13.478989 0-24.405853-10.92584-24.405853-24.404829v-301.410748a24.405853 24.405853 0 0 1 24.405853-24.405853l205.984375 1.708922a24.403806 24.403806 0 0 1 24.404829 24.405852 24.403806 24.403806 0 0 1-24.404829 24.405853l-181.334975-1.464351V578.030112a24.405853 24.405853 0 0 1-7.233752 17.344016zM983.901747 574.387142c-24.375154 57.631582-59.268872 109.386316-103.70799 153.826457-44.439118 44.439118-96.193853 79.331813-153.826458 103.70799C666.690128 857.163483 603.309612 869.96095 537.983791 869.96095c-94.765317 0-186.54258-27.389814-265.411859-79.207993-76.852342-50.492998-137.521097-121.32216-175.447894-204.828038-4.440126-9.776667-0.11461-21.302165 9.662057-25.742291s21.303188-0.11461 25.742291 9.662057c34.883485 76.806293 90.692558 141.957129 161.39483 188.409091 72.508407 47.64002 156.903539 72.821539 244.059552 72.821539 60.093657 0 118.379131-11.764951 173.236529-34.968419 52.997028-22.415522 100.597139-54.509475 141.478222-95.390558 40.880059-40.881083 72.974012-88.481194 95.390557-141.477198 23.203468-54.858422 34.968419-113.142873 34.96842-173.23653 0-60.092633-11.764951-118.378108-34.96842-173.235506-22.415522-52.997028-54.510498-100.597139-95.390557-141.478222-40.881083-40.880059-88.481194-72.974012-141.478222-95.390557-54.857399-23.203468-113.142873-34.968419-173.236529-34.968419-60.092633 0-118.378108 11.764951-173.23653 34.968419-52.997028 22.415522-100.596116 54.510498-141.477198 95.390557-40.881083 40.881083-72.975035 88.481194-95.390558 141.478222-21.373797 50.53393-33.033347 103.978143-34.740222 159.062715l5.581112-0.027629h24.405853a22.451338 22.451338 0 0 1 14.887059 38.561248l-48.811706 48.811705c-8.765641 8.751315-22.961968 8.751315-31.727609 0l-48.811705-48.811705a22.451338 22.451338 0 0 1 15.863292-38.316678h24.405853l5.297656-0.025582c1.697665-60.387345 14.399965-118.992091 37.835724-174.401052 24.376177-57.631582 59.268872-109.387339 103.70799-153.826458 44.440142-44.439118 96.193853-79.331813 153.825434-103.70799 59.677171-25.241894 123.05871-38.040385 188.384531-38.040385s128.706337 12.798491 188.384532 38.040385c57.631582 24.375154 109.387339 59.268872 153.826457 103.70799 44.439118 44.440142 79.331813 96.194876 103.70799 153.825434 25.241894 59.677171 38.040385 123.059734 38.040385 188.384532 0.001023 65.324798-12.797467 128.706337-38.039361 188.383508z"  horiz-adv-x="1024" />

    
    <glyph glyph-name="tubiaozhizuomoban" unicode="&#58940;" d="M2.601 535.953c0 20.399 3.482 34.951 10.042 43.763 6.7 8.696 21.432 12.939 44.548 12.939h142.126v-566.819h-61.023c-16.351 0-32.38 0.121-48.277 0.509-16.03 0.258-26.839 0.518-32.765 0.518-20.014-0.778-34.113 2.637-42.285 10.296-8.117 7.532-12.3 22.011-12.3 43.128V243.461c0 8.305 1.413 14.612 3.928 18.601 2.51 4.122 7.919 7.019 16.091 8.563 3.023 0 6.953 1.16 12.294 3.41 5.083 2.379 10.296 6.049 15.45 10.943 5.149 4.893 9.657 11.201 13.321 19.247 3.67 7.851 5.601 17.447 5.601 28.903 0 17.381-4.568 30.895-13.839 40.744-9.27 9.784-19.18 15.578-29.61 16.93-8.05 1.479-14.033 4.056-17.701 7.399-3.736 3.543-5.601 9.336-5.601 17.635V535.953z m92.245 107.683v29.549c0 14.998 5.854 29.097 17.244 41.904 11.394 12.807 23.882 19.308 37.208 19.308h153.454v-90.76H94.846v-0.001z m905.848-245.953c-5.787-1.6-10.169-4.762-12.807-9.778-2.379-4.768-3.928-10.302-3.928-16.224 0-6.18 1.485-11.973 3.928-17.569 2.637-5.794 7.019-9.789 12.807-11.975 5.927-2.383 10.689-6.891 13.972-13.579 3.41-6.886 5.276-13.971 5.535-21.63a60.62 60.62 0 0 0-2.77-21.498c-2.252-6.759-5.535-11.715-9.909-14.806-14.806-9.076-22.144-19.247-22.144-30.574 0-11.329 7.272-22.784 22.144-33.925 3.029-2.383 5.66-6.566 8.299-12.421 2.516-6.18 3.801-12.167 3.801-18.347 0-6.047-1.346-11.202-4.382-15.704-3.023-4.635-8.166-6.886-15.571-6.886h-59.992c-4.249 0-6.759 0.386-7.019 1.285-0.386 0.773 0.127 1.997 1.479 3.801 1.484 1.993 3.288 4.056 5.54 6.434 2.252 2.252 4.05 4.895 5.662 7.919 3.67 10.555 3.67 19.632 0 27.159-3.796 7.665-9.911 13.972-18.987 19.247-5.922 3.024-10.297 7.792-12.681 14.358-2.637 6.302-3.67 12.934-3.283 19.76 0.258 6.886 1.479 12.808 3.796 18.088 2.257 5.407 5.667 9.205 9.916 11.456 6.047 2.256 10.424 6.439 13.321 12.425 3.023 5.922 4.508 12.421 4.508 19.247 0 6.821-1.291 13.067-3.283 18.728-2.252 5.662-5.535 9.657-10.169 11.848-5.794 3.15-10.429 7.526-13.839 13.706-3.349 5.795-4.956 12.554-4.956 20.147 0 7.665 1.352 14.931 4.375 22.144 3.024 7.206 7.659 13.067 14.354 17.569 4.635 3.03 8.305 7.146 11.201 12.427 3.157 5.407 4.509 10.942 5.149 16.989 0.386 6.114-1.033 11.908-3.41 17.576-2.637 5.727-7.274 10.363-13.966 14.159-7.278 3.736-12.812 9.336-16.095 16.41-3.279 7.213-5.022 14.678-5.022 22.144 0 7.665 1.743 14.745 5.022 21.631 3.283 6.693 7.923 12.1 13.838 15.962 12.554 6.694 19.634 16.03 20.599 27.679 1.16 11.715 0.26 22.596-2.769 32.253-2.379 7.654-6.694 14.418-13.194 20.466-6.761 6.115-15.318 9.077-25.62 9.077H370.662v89.535h625.784c5.153 0 9.402-1.931 13.072-5.662 3.796-3.801 6.302-8.305 7.399-13.646 1.158-5.28 0.778-10.754-1.158-16.416-1.739-5.601-5.276-10.49-10.556-14.286-4.509-3.803-8.432-8.57-11.715-14.684-3.41-6.047-5.022-12.228-5.662-18.728-0.264-6.499 0.767-12.807 2.897-19.307 2.119-6.372 6.174-11.14 12.161-14.164 8.305-4.502 14.358-10.749 18.343-18.601 4.122-7.918 6.247-15.831 6.247-23.684 0-8.05-2.125-15.389-6.176-22.143-4.056-6.886-9.661-11.848-17.128-14.745-8.172-3.15-14.225-7.399-17.828-13.061-3.796-5.734-5.66-11.975-6.18-18.668-0.386-6.826 1.033-13.458 4.249-19.826 3.41-6.501 8.817-12.106 16.224-16.609 7.399-4.375 12.934-10.424 16.217-18.087 3.283-7.473 4.635-14.999 4.376-22.658-0.387-7.532-2.252-14.483-5.535-20.984-3.404-6.307-8.238-9.976-14.999-10.754z m-144.439 17.001c-8.817-2.257-15.704-6.699-20.599-12.94-4.768-6.567-7.272-13.072-7.79-20.019-0.254-6.759 1.61-13.585 5.54-20.466 4.249-6.7 10.169-11.589 18.468-14.618 7.278-3.151 12.939-7.659 16.609-13.579 3.796-6.18 5.799-12.548 6.18-19.38 0.386-6.82-1.027-13.321-3.924-19.247-2.896-6.047-7.405-10.684-13.325-13.574-18.474-9.21-28.191-20.152-28.771-32.96-0.905-12.812 6.175-22.976 20.984-30.702 6.693-3.029 12.102-7.665 16.085-14.098 4.122-6.44 6.313-13.199 6.765-20.473 0.38-7.018-1.033-13.579-4.056-19.114-2.903-5.926-7.792-9.657-14.358-12.1-8.945-2.257-15.704-6.307-20.726-12.427-4.635-5.916-7.141-12.415-7.532-19.114-0.513-7.014 1.352-13.706 5.535-20.473 4.056-6.881 10.561-12.547 19.374-17.122 6.053-3.023 10.169-7.785 12.812-14.098 2.637-6.562 3.543-12.681 2.897-18.728-0.906-6.047-2.897-11.582-6.313-16.35-3.277-5.016-7.914-7.399-13.967-7.399H264.905v566.95h587.936c5.926 0 10.688-2.317 14.098-7.399 3.283-4.895 5.022-10.302 5.54-16.416 0.38-6.114-1.033-12.102-4.061-18.088-2.897-5.987-7.786-10.236-14.352-12.421-6.694-2.317-12.102-6.114-16.218-11.394-4.122-5.215-6.439-11.202-7.272-17.509-0.646-6.494 0.894-12.613 4.502-18.728 3.797-6.114 10.044-10.627 18.988-13.579 6.566-3.029 12.1-7.532 16.095-13.646 3.985-6.114 6.434-12.233 6.694-18.607 0.386-6.627-1.16-12.548-4.376-18.347-3.289-5.534-8.696-9.589-16.224-11.835z m-267.898-76.087c-3.543 0-7.538 0.386-11.72 1.158-3.989 0.9-4.762 3.156-2.77 6.886 0.905 1.352 4.382 6.759 10.689 15.837a585.583 585.583 0 0 0 21.111 28.903c7.786 10.296 14.804 19.887 21.757 28.898 6.567 9.077 10.684 14.738 12.102 17.122 3.796 5.92 1.479 13.067-6.694 21.432-1.352 1.55-4.38 3.868-8.945 6.959-4.248 2.957-8.37 5.208-12.04 6.693-6.047 2.185-10.302 2.637-12.939 1.092-2.379-1.483-5.662-4.828-9.326-10.169-1.485-2.191-5.153-7.726-11.206-16.355-5.855-8.878-12.163-18.022-18.861-27.872-6.632-9.904-12.807-18.727-18.341-26.513-5.662-8.05-8.758-12.681-9.404-14.291-1.413-2.897-4.308-4.183-8.43-3.416-4.056 0.778-6.755 2.643-8.172 5.667-0.905 1.478-4.116 5.92-10.104 13.198a353.48 353.48 0 0 0-18.926 24.263c-6.567 9.21-13.061 17.443-19.374 25.493-6.374 7.978-10.556 13.386-12.873 16.537-6.694 12.812-13.707 16.929-21.046 12.36-5.214-2.964-9.915-6.175-14.037-9.524-4.056-3.543-7.913-6.374-11.582-8.692-7.406-5.147-8.498-12.04-3.351-20.339 12.554-15.058 23.75-29.036 33.407-41.97 8.111-10.556 15.837-20.599 23.369-30.702 7.333-9.662 11.775-15.324 13.194-16.996 1.54-2.896 0-4.502-4.443-4.502h-13.199c-3.663 0-9.137-0.127-16.084-0.518-7.146-0.387-13.651-0.26-19.634 0.518-5.859 0-10.754-1.352-14.485-4.508-3.602-2.897-4.762-6.694-3.222-11.196 0.712-3.163 1.098-7.665 1.098-13.585v-13.839c0-3.67 1.033-5.8 3.351-6.18 2.25-0.326 4.762-0.453 7.785-0.453h64.494c8.758 0 13.199-1.865 13.199-5.666v-21.493c0-3.928-0.646-5.794-2.185-5.794h-74.475c-4.382 0.767-7.279-0.391-8.817-3.283-1.418-3.156-2.512-6.566-3.351-10.302-0.771-3.923-0.771-7.399 0-10.682 0.839-3.537 1.033-6.434 1.033-8.565 0-9.911 4.828-14.8 14.479-14.8h66.751c3.862 0 5.987-0.518 6.626-1.61 0.712-1.158 1.158-3.67 1.158-7.399 0.778-3.803 1.033-10.562 0.52-20.346-0.321-9.915-0.579-16.283-0.579-19.439 0-8.299 4.828-12.421 14.418-12.421h35.663c5.915 0 8.939 1.865 8.939 5.787v45.253c0 7.659 3.416 11.462 9.915 11.462h10.044c5.148 0 11.069 0.126 17.249 0.64 6.433 0.258 12.421 0.518 18.22 0.518h14.479c10.297 0 15.704 3.791 15.704 11.196v25.04c0 6.886-3.669 10.297-11.069 10.297H562.8c-7.272-1.605-11.201 0-11.201 4.509 0 2.119-0.127 5.02-0.52 8.432-0.38 3.41-0.441 6.439-0.441 9.59 0 2.901 1.158 5.28 3.791 6.693 2.708 1.61 5.474 2.383 8.37 2.383h65.654c7.272 0 11.075 2.512 11.075 7.919v27.225c0 3.024-1.285 5.922-3.93 8.945-2.637 3.157-5.787 4.509-9.397 4.509h-37.842v0.006h-0.002z m0 0"  horiz-adv-x="1027" />

    
    <glyph glyph-name="zan" unicode="&#59662;" d="M780.32896-44.83072H436.65408c-36.78208 0-105.49248 23.87968-105.49248 81.46944V500.85888l8.31488 6.144c1.61792 1.20832 161.71008 121.38496 161.71008 269.04576V781.5168l1.3312 2.33472c0.08192 0.94208 0.12288 2.00704 0.2048 3.1744C503.82848 803.84 507.12576 855.04 576.73728 855.04l2.2528-0.12288c1.72032-0.18432 42.84416-5.26336 73.66656-50.52416 40.77568-59.94496 44.68736-158.57664 11.5712-293.39648h201.76896c0.4096 0.02048 1.72032 0.08192 3.52256 0.08192 8.88832 0 26.112-1.45408 42.25024-11.14112 14.92992-9.0112 32.74752-27.48416 32.72704-64.38912 0-3.62496-1.00352-92.2624-85.85216-380.88704-9.37984-30.1056-35.57376-99.49184-78.31552-99.49184zM372.1216 480.50176v-443.904c0-28.03712 46.75584-40.48896 64.53248-40.48896h343.49056c9.50272 2.21184 28.89728 37.00736 39.26016 70.41024 83.16928 282.7264 84.09088 368.20992 84.09088 369.0496 0 19.27168-7.35232 25.94816-12.9024 29.2864-8.11008 4.89472-18.20672 5.26336-21.07392 5.26336l-2.9696-0.08192H611.04128l7.00416 25.82528c45.8752 169.45152 25.76384 248.77056 0.75776 285.47072-17.75616 26.112-39.40352 31.8464-43.60192 32.74752-29.67552-0.4096-30.47424-12.73856-31.60064-29.696-0.28672-4.05504-0.512-7.9872-1.47456-11.776-2.048-147.72224-134.67648-263.7824-170.00448-292.10624zM268.10368-44.83072H149.58592c-19.98848 0-49.70496 13.23008-49.70496 49.60256L71.63904 461.312c0.26624 20.84864 13.63968 49.50016 49.17248 49.50016h136.97024c22.26176 0 55.27552-14.70464 55.27552-55.1936V-5.12c0.02048-2.37568-0.38912-16.01536-11.34592-27.11552-5.69344-5.7344-16.13824-12.5952-33.60768-12.5952z m-10.3424 514.70336H120.81152c-2.43712 0-8.13056 0-8.25344-7.61856l28.24192-456.23296c0.04096-3.62496 0.04096-9.89184 8.78592-9.89184h118.51776a16.71168 16.71168 0 0 1 3.9936 0.43008V455.63904c0 3.82976 0 13.96736-14.336 14.2336z"  horiz-adv-x="1024" />

    
    <glyph glyph-name="dingdan" unicode="&#58922;" d="M291.455289 342.52653l0.383999 0.383998-0.383999-0.383998z m-1.727994-7.359977l0.383999 0.383998-0.383999-0.383998z m-157.055509 376.958822zM915.26134 851.19694l-1.727995 1.727995a164.543486 164.543486 0 0 1-111.93565 43.007865h-579.19819a164.735485 164.735485 0 0 1-111.99965-43.007865A140.79956 140.79956 0 0 1 63.808001 749.437258v-730.877716a140.79956 140.79956 0 0 1 46.463855-103.359677 164.863485 164.863485 0 0 1 111.87165-43.007866h434.878641a31.231902 31.231902 0 0 1 22.27193 9.023972l269.567158 236.79926a27.071915 27.071915 0 0 1 11.007966 21.567933v609.918094a140.79956 140.79956 0 0 1-44.79986 101.823682z m-15.551951-699.901813l-254.335206-223.9993H635.582214v189.119409a56.255824 56.255824 0 0 0 18.047944 42.047869 66.239793 66.239793 0 0 0 45.503857 16.703948h200.575374v-24.319924z m0 79.93575H699.134015a128.639598 128.639598 0 0 1-88.127724-33.023896 109.887657 109.887657 0 0 1-35.775888-81.535746v-189.119409H222.463505a102.39968 102.39968 0 0 0-69.311783 26.623917 87.359727 87.359727 0 0 0-28.671911 63.9998V749.565258a87.231727 87.231727 0 0 0 28.671911 63.9998A102.39968 102.39968 0 0 0 222.463505 840.252974h579.19819a101.951681 101.951681 0 0 0 69.247784-26.687916l1.407995-1.215997a86.911728 86.911728 0 0 0 27.455914-62.847803v-518.39838z m-622.462055-31.103902a27.967913 27.967913 0 1 0 0 55.807825h237.567257a27.967913 27.967913 0 1 0 0-55.807825H277.183334z m0 136.895572a27.967913 27.967913 0 1 0 0 55.807825h237.567257a27.967913 27.967913 0 1 0 0-55.807825H277.183334z m0 136.895572a27.967913 27.967913 0 1 0 0 55.807826h539.326314a27.967913 27.967913 0 1 0 0-55.807826H277.183334z m0 136.895572a27.967913 27.967913 0 1 0 0 55.807826h539.326314a27.967913 27.967913 0 1 0 0-55.807826H277.183334z"  horiz-adv-x="1024" />

    
    <glyph glyph-name="shangjiantou" unicode="&#58884;" d="M512.064 607.28l278.4-279.68-45.376-45.12-232.704 233.791-231.616-236.032-45.632 44.8z"  horiz-adv-x="1024" />

    
    <glyph glyph-name="shangxiajiantou" unicode="&#58625;" d="M511.936 274.496l-278.4 279.68 45.376 45.12 232.704-233.792 231.616 236.032 45.632-44.8z"  horiz-adv-x="1024" />

    
    <glyph glyph-name="yuanquanyoujiantou" unicode="&#58893;" d="M510.34 834.404c-246.217 0-446.189-199.973-446.189-446.187 0-246.216 199.973-445.76 446.189-445.76s446.189 199.544 446.189 445.76c0 246.214-199.973 446.187-446.189 446.187z m0-836.435c-215.397 0-390.249 174.852-390.249 390.249 0 215.391 174.852 390.248 390.249 390.248 215.394 0 390.248-174.857 390.248-390.248 0-215.398-174.855-390.249-390.248-390.249zM664.613 400.988L450.985 614.169c-10.583 11.012-28.625 11.012-39.21 0-11.01-10.561-11.01-28.627 0-39.209l198.21-198.638-195.712-196.14c0.027-0.031 0.051-0.065 0.078-0.096l-0.327-0.327c-11.01-10.582-11.01-28.648 0-39.209 10.584-11.012 28.627-11.012 39.21 0L634.23 321.164h-0.168l30.552 30.487c9.262 9.763 15.144 32.02-0.001 49.337z"  horiz-adv-x="1024" />

    
    <glyph glyph-name="jia1" unicode="&#58914;" d="M636.031541 869.360728a80.95876 80.95876 0 0 1-120.062162 0L7.433166 316.281197a28.031571 28.031571 0 0 1 2.015969-39.999388 28.895558 28.895558 0 0 1 19.295705-7.295888 28.799559 28.799559 0 0 1 21.375673 9.343857l90.622612 101.374448v-422.457531c0-46.879282 38.751407-85.022698 86.398677-85.022698h697.589318c47.64727 0 86.398677 38.143416 86.398677 85.022698V379.672226l90.622613-101.374447a29.087555 29.087555 0 0 1 40.671377-1.98397 27.935572 27.935572 0 0 1 2.015969 39.999387L636.031541 869.360728zM691.198696-127.808003h-230.396472v306.075313c0 18.783712 12.895803 34.015479 28.799559 34.015479h172.797354c15.903756 0 28.799559-15.231767 28.799559-34.015479v-306.075313z"  horiz-adv-x="1151" />

    
    <glyph glyph-name="liebiao" unicode="&#59058;" d="M308.366543 612.038773H896.447687c27.935645 0 50.447886 22.61457 50.447886 50.345558s-22.716898 50.345558-50.447886 50.345558H308.366543c-27.935645 0-50.447886-22.61457-50.447886-50.345558-0.102328-27.62866 22.512241-50.345558 50.447886-50.345558zM127.552313 434.601379c-27.935645 0-50.447886-22.61457-50.447886-50.345558s22.716898-50.345558 50.447886-50.345558c27.935645 0 50.447886 22.61457 50.447887 50.345558 0 13.507345-5.116419 25.991406-14.632957 35.405616-9.311882 9.618867-22.102928 14.939942-35.81493 14.939942zM127.552313 155.858899c-27.935645 0-50.447886-22.61457-50.447886-50.345558 0-27.833317 22.716898-50.345558 50.447886-50.345558 27.935645 0 50.447886 22.61457 50.447887 50.345558 0 13.507345-5.116419 25.991406-14.632957 35.405616-9.311882 9.516538-22.102928 14.939942-35.81493 14.939942zM896.550015 434.294394H308.366543C280.430898 434.294394 257.918657 411.679824 257.918657 383.846507S280.533227 333.500949 308.366543 333.500949H896.447687c27.935645 0 50.447886 22.61457 50.447886 50.345558 0.102328 27.730988-22.61457 50.447886-50.345558 50.447887zM127.552313 713.241531c-27.935645 0-50.447886-22.61457-50.447886-50.345558s22.716898-50.345558 50.447886-50.345558c27.935645 0 50.447886 22.61457 50.447887 50.345558 0.306985 27.833317-22.409913 50.345558-50.447887 50.345558zM896.550015 155.449585H308.366543c-27.935645 0-50.447886-22.512241-50.447886-50.345558s22.716898-50.345558 50.447886-50.345558H896.447687c27.935645 0 50.447886 22.61457 50.447886 50.345558 0.102328 27.833317-22.61457 50.345558-50.345558 50.345558z"  horiz-adv-x="1024" />

    
    <glyph glyph-name="zuo" unicode="&#58626;" d="M758.142 836.909l-38.611 38.611-480.597-480.597 480.597-480.597 38.611 38.611-441.986 441.986z"  horiz-adv-x="1024" />

    
    <glyph glyph-name="daojishi" unicode="&#59101;" d="M511.970752 890.905473c-280.199005 0-509.452736-229.253731-509.452736-509.452737s229.253731-509.452736 509.452736-509.452736c101.890547 0 203.781095 35.661692 290.38806 91.701493 10.189055 5.094527 10.189055 20.378109 5.094527 35.661691-5.094527 10.189055-20.378109 10.189055-35.661691 5.094527-81.512438-50.945274-173.21393-86.606965-264.915423-86.606965-254.726368 0-463.60199 203.781095-463.60199 463.60199s203.781095 463.60199 463.60199 463.60199c254.726368 0 463.60199-203.781095 463.60199-463.60199 0-91.701493-30.567164-183.402985-81.512438-259.820895-5.094527-10.189055-5.094527-20.378109 5.094528-35.661692 10.189055-5.094527 20.378109-5.094527 35.661691 5.094528 56.039801 86.606965 86.606965 183.402985 86.606965 285.293532 5.094527 290.38806-224.159204 514.547264-504.358209 514.547264zM522.159807 722.78607c-10.189055 0-20.378109-10.189055-20.378109-20.37811v-320.955224c0-5.094527 0-10.189055 5.094527-15.283582l178.308458-178.308457c5.094527-5.094527 10.189055-5.094527 15.283582-5.094528 5.094527 0 10.189055 0 15.283582 5.094528 10.189055 10.189055 10.189055 20.378109 0 35.661691l-173.213931 173.21393v310.76617c5.094527 5.094527-10.189055 15.283582-20.378109 15.283582zM827.831449 45.21393c0-15.283582 10.189055-25.472637 25.472637-25.472636s25.472637 10.189055 25.472636 25.472636-10.189055 25.472637-25.472636 25.472637-25.472637-10.189055-25.472637-25.472637z"  horiz-adv-x="1024" />

    
    <glyph glyph-name="wodeyouhuiquan" unicode="&#59114;" d="M1013.76 266.271744V96.621568c0-45.472768-34.967552-82.340864-78.096384-82.340864H88.315904c-43.099136 0.024576-78.048256 36.867072-78.073856 82.290688V265.949184c30.555136 6.734848 59.784192 23.030784 76.142592 49.83296 11.490304 18.829312 22.902784 44.498944 22.902784 68.530176 0 24.005632-10.612736 46.372864-22.127616 65.204224C70.802432 476.321792 40.79616 495.915008 10.24 502.651904V671.42656c0.0256 45.452288 34.996224 82.290688 78.099456 82.290688H935.65952c43.098112 0 78.073856-36.8384 78.096384-82.290688v-169.090048c-30.804992-7.20896-57.00096-27.466752-73.00608-55.00928-10.686464-18.353152-24.686592-39.955456-24.710144-63.010816 0-23.074816 14.021632-44.655616 24.710144-63.035392 16.006144-27.543552 42.203136-47.802368 73.010176-55.00928z m-49.624064 285.1328V700.0832H336.888832v-77.328384H286.86336v77.328384H59.867136v-141.17888c56.17152-35.649536 101.681152-100.588544 101.681152-174.58688 0-74.021888-45.509632-138.93632-101.681152-174.583808v-141.812736h226.997248v76.983296h48.468992v-76.983296H964.13696V217.204736c-55.394304 35.83488-101.856256 93.699072-101.856256 167.11168 0 73.416704 46.435328 131.274752 101.855232 167.088128zM727.031808 358.43584H650.0864c-3.059712 0-5.971968-0.871424-8.805376-2.664448-2.78528-1.588224-3.986432-0.10752-3.986432-3.355648 0-3.545088 0.044032-6.921216 0.448512-10.720256 0.42496-3.83488 0.551936-3.751936 0.551936-6.127616 0-5.0432 4.135936-6.836224 11.789312-5.0432h75.862016c7.778304 0 11.645952-3.803136 11.645952-11.513856v-25.506816c0-8.266752-5.697536-12.517376-16.531456-12.517376h-23.083008c-6.093824 0-12.389376-0.29184-19.167232-0.57856-6.500352-0.581632-12.744704-0.717824-18.163712-0.717824h-10.55744c-6.851584 0-10.438656-4.250624-10.438656-12.80512v-58.838016c0-4.38784-3.18976-6.474752-9.409536-6.474752h-27.34592c-10.112 0-15.17568 4.595712-15.17568 13.865984 0 3.542016 0.274432 10.669056 0.602112 21.737472 0.551936 10.934272 0.279552 26.755072-0.557056 31.004672 0 4.171776-0.443392 6.969344-1.202176 8.266752-0.674816 1.23904-2.902016 1.794048-6.974464 1.794048h-75.762688c-10.159104 0-15.22688 5.467136-15.22688 16.559104 0 2.379776-0.201728 5.623808-1.103872 9.558016-0.800768 3.670016-0.800768 5.098496 0 9.483264 0.90112 4.171776 2.057216 7.97184 3.534848 11.50976 1.634304 3.224576 4.670464 4.547584 9.284608 3.675136h83.868672c1.627136 0 2.305024 2.08384 2.305024 6.465536v16.6144c0 4.252672-4.665344 6.335488-13.897728 6.335488h-73.358336c-3.185664 0-5.844992 0.131072-8.204288 0.50688-2.433024 0.422912-3.535872 2.796544-3.535872 6.890496v12.993536c0 6.6304-0.402432 11.675648-1.154048 15.184896-1.605632 5.042176-0.401408 9.295872 3.410944 12.519424 3.915776 3.536896 9.05728 5.040128 15.228928 5.040128 6.296576-0.872448 13.146112-1.001472 20.673536-0.57856 7.323648 0.448512 8.378368 0.57856 12.24192 0.57856h13.871104c4.697088 0 6.299648 1.795072 4.697088 5.0432-1.508352 1.878016-2.26304 8.213504-9.987072 18.988032-7.931904 11.302912-19.969024 29.129728-28.500992 40.932352-10.162176 14.471168-21.952512 30.076928-35.16928 46.926848-5.420032 9.271296-4.268032 16.980992 3.508224 22.736896 3.863552 2.587648 7.931904 5.758976 12.197888 9.691136 4.339712 3.75296 9.307136 7.344128 14.77632 10.67008 7.728128 5.098496 15.09888 0.50176 22.151168-13.81376 2.4576-3.53792 6.848512-9.583616 13.54752-18.510848 6.643712-8.978432 13.49632-18.19648 20.399104-28.495872 6.921216-10.269696 13.620224-19.277824 19.914752-27.121664 6.324224-8.136704 9.711616-13.099008 10.63936-14.765056 1.508352-3.378176 4.34176-5.467136 8.6016-6.309888 4.342784-0.874496 7.399424 0.553984 8.8832 3.805184 0.674816 1.794048 3.936256 6.967296 9.882624 15.973376 5.844992 8.717312 12.343296 18.568192 19.318784 29.659136 7.049216 10.986496 13.70112 21.231616 19.84 31.131648 6.372352 9.669632 10.238976 15.8464 11.792384 18.300928 3.863552 5.968896 7.328768 9.696256 9.84064 11.35616 2.78016 1.7152 7.2448 1.216512 13.615104-1.215488 3.861504-1.662976 8.206336-4.171776 12.670976-7.5008 4.790272-3.43552 7.98208-6.02112 9.409536-7.763968 8.604672-9.348096 11.037696-17.350656 7.05024-23.950336-1.482752-2.669568-5.823488-9.007104-12.745728-19.146752-7.299072-10.062848-14.703616-20.78208-22.907904-32.303104-8.328192-11.378688-15.577088-28.622848-22.20032-38.921216-6.646784-10.14272-10.309632-16.187392-11.264-17.695744-2.081792-4.170752-1.28-6.705152 2.937856-7.712768 4.385792-0.872448 8.602624-1.29536 12.3136-1.29536h47.6928c3.789824 0 7.105536-1.50528 9.885696-5.040128 2.786304-3.383296 4.139008-6.603776 4.139008-9.985024v-27.962368c0.001024-6.042624-4.009984-8.846336-11.662336-8.846336z m-440.141824 182.19008h49.497088v-128.369664l-49.497088 0.03072V540.62592z m49.46944-313.417728H286.86336V355.582976h49.497088v-128.374784h-0.001024z"  horiz-adv-x="1024" />

    
    <glyph glyph-name="hezuoshanghu" unicode="&#58975;" d="M1024 582.4c-6.4-64-25.6-108.8-44.8-134.4-19.2-19.2-57.6-64-76.8-83.2l-230.4 243.2-115.2-108.8c-51.2-51.2-121.6-57.6-121.6-57.6h-6.4c-57.6 0-108.8 38.4-134.4 64 51.2 51.2 243.2 249.6 313.6 313.6 25.6 25.6 83.2 51.2 147.2 51.2 70.4 0 134.4-32 185.6-89.6C1017.6 710.4 1024 633.6 1024 582.4zM236.8 505.6l12.8-12.8c6.4-6.4 83.2-89.6 179.2-89.6h12.8c6.4 0 83.2 6.4 140.8 64l89.6 83.2 128-134.4 115.2-121.6c19.2-19.2 12.8-51.2 0-70.4-19.2-19.2-51.2-25.6-70.4-6.4l-153.6 147.2-12.8-12.8-12.8-12.8 147.2-147.2c19.2-19.2 12.8-44.8-6.4-70.4-12.8-12.8-25.6-19.2-38.4-19.2-12.8 0-25.6 6.4-32 12.8L588.8 268.79999999999995l-25.6-25.6 147.2-153.6c6.4-6.4 12.8-19.2 12.8-32s-6.4-25.6-19.2-38.4c-12.8-12.8-25.6-19.2-38.4-19.2-12.8 0-25.6 0-32 12.8l-19.2 19.2c32 32 32 83.2 0 115.2-12.8 12.8-38.4 25.6-57.6 25.6h-12.8c0 25.6-6.4 51.2-25.6 64-12.8 12.8-32 19.2-51.2 19.2h-12.8v6.4c-6.4 19.2-12.8 44.8-25.6 57.6-19.2 12.8-38.4 25.6-57.6 25.6h-19.2v12.8c0 19.2-6.4 44.8-25.6 57.6-12.8 12.8-32 19.2-57.6 19.2-19.2 0-44.8-6.4-57.6-25.6L140.8 339.20000000000005l6.4 6.4C121.6 358.4 70.4 416 51.2 441.6V448c-70.4 121.6-64 236.8 32 332.8C153.6 851.2 230.4 864 281.6 857.6c70.4-6.4 128-32 153.6-57.6 12.8-6.4 25.6-25.6 51.2-44.8C384 659.2 256 524.8 249.6 518.4l-12.8-12.8z m0-121.6c12.8 6.4 19.2 12.8 32 12.8s25.6-6.4 32-12.8c6.4-6.4 12.8-19.2 12.8-32s-6.4-25.6-12.8-32l-115.2-115.2c-6.4-6.4-19.2-12.8-32-12.8s-25.6 6.4-32 12.8c-6.4 6.4-12.8 19.2-12.8 32s6.4 25.6 12.8 32L236.8 384z m76.8-32z m25.6-57.6c6.4 6.4 19.2 12.8 32 12.8s25.6-6.4 32-12.8c6.4-6.4 12.8-19.2 12.8-32s-6.4-25.6-12.8-32l-115.2-115.2c-6.4-6.4-19.2-12.8-32-12.8s-25.6 6.4-32 12.8c-6.4 6.4-12.8 19.2-12.8 32s6.4 25.6 12.8 32l115.2 115.2z m96-89.6c6.4 6.4 19.2 12.8 32 12.8s25.6-6.4 32-12.8c19.2-19.2 19.2-44.8 0-64L384 25.600000000000023c-6.4-6.4-19.2-12.8-32-12.8s-25.6 6.4-32 12.8c-6.4 6.4-12.8 19.2-12.8 32s6.4 25.6 12.8 32l115.2 115.2z m96-89.6c6.4 6.4 19.2 12.8 32 12.8s25.6-6.4 32-12.8c19.2-19.2 19.2-44.8 0-64L480-64c-6.4-6.4-19.2-12.8-32-12.8s-25.6 6.4-32 12.8c-6.4 6.4-12.8 19.2-12.8 32s6.4 25.6 12.8 32l115.2 115.2z m76.8-134.4c19.2-19.2 12.8-44.8-6.4-70.4-19.2-19.2-51.2-19.2-70.4-6.4l-19.2 19.2L588.8 0l19.2-19.2z"  horiz-adv-x="1024" />

    
    <glyph glyph-name="jiqiren" unicode="&#58628;" d="M144.266731 368.025167L144.266731 591.834512c0 8.893554-7.15905 16.003486-15.988136 16.003486-8.891508 0-15.988136-7.16519-15.988136-16.003486l0-223.809345c0-8.893554 7.158027-16.002462 15.988136-16.002462C137.169079 352.023728 144.266731 359.186871 144.266731 368.025167zM943.686836 543.8844300000001c-8.892531 0-15.988136-7.137561-15.988136-15.941064l0-96.025007c0-8.698103 7.158027-15.941064 15.988136-15.941064 8.890484 0 15.988136 7.136537 15.988136 15.941064l0 96.025007C959.674972 536.640446 952.516946 543.8844300000001 943.686836 543.8844300000001zM96.3013 431.917336l0 96.025007c0 8.698103-7.15905 15.941064-15.988136 15.941064-8.891508 0-15.988136-7.137561-15.988136-15.941064l0-96.025007c0-8.698103 7.158027-15.941064 15.988136-15.941064C89.203648 415.977295 96.3013 423.113833 96.3013 431.917336zM911.710564 368.025167L911.710564 591.834512c0 8.893554-7.15905 16.003486-15.988136 16.003486-8.892531 0-15.988136-7.16519-15.988136-16.003486l0-223.809345c0-8.893554 7.158027-16.002462 15.988136-16.002462C904.612912 352.023728 911.710564 359.186871 911.710564 368.025167zM671.883407 384c52.980655 0 95.930863 42.949184 95.930863 95.930863 0 52.979632-42.950208 95.930863-95.930863 95.930863-52.980655 0-95.930863-42.950208-95.930863-95.930863C575.953567 426.949184 618.902752 384 671.883407 384zM671.883407 543.8844300000001c35.320437 0 63.953567-28.633131 63.953567-63.953567 0-35.32146-28.633131-63.953567-63.953567-63.953567-35.32146 0-63.953567 28.632107-63.953567 63.953567C607.92984 515.250276 636.56297 543.8844300000001 671.883407 543.8844300000001zM352.11557 384c52.979632 0 95.930863 42.949184 95.930863 95.930863 0 52.979632-42.950208 95.930863-95.930863 95.930863-52.980655 0-95.930863-42.950208-95.930863-95.930863C256.18573 426.949184 299.134915 384 352.11557 384zM352.11557 543.8844300000001c35.320437 0 63.953567-28.633131 63.953567-63.953567 0-35.32146-28.633131-63.953567-63.953567-63.953567-35.32146 0-63.953567 28.632107-63.953567 63.953567C288.162002 515.250276 316.79411 543.8844300000001 352.11557 543.8844300000001zM608.025007 831.6759959999999L415.97397 831.6759959999999c-17.5804 0-31.881105-14.360056-31.881105-32.07144l0-63.859423L192.309934 735.745133c-17.684778 0-32.055067-14.329357-32.055067-32.004925l0-447.619714c0-17.787108 14.350846-32.003901 32.055067-32.003901l191.782931 0 0-63.953567-63.987337 0c-17.581424 0-31.942503-14.359033-31.942503-32.070416l0-159.697165c0-17.72878 14.253632-32.070416 31.836079-32.070416l384.001791 0c17.449417 0 31.837102 14.358009 31.837102 32.070416l0 159.697165c0 17.727757-14.301727 32.070416-31.943526 32.070416l-63.987337 0 0 63.953567 191.781908 0c17.684778 0 32.05609 14.328333 32.05609 32.003901L863.745133 703.7402079999999c0 17.787108-14.351869 32.004925-32.05609 32.004925L639.907135 735.745133 639.907135 799.604556C639.907135 817.500135 625.632013 831.6759959999999 608.025007 831.6759959999999zM416.069137 799.6987L607.92984 799.6987l0-63.953567L416.069137 735.745133 416.069137 799.6987zM703.860702 128.18573000000004l0-159.88443L320.139298-31.69870000000003 320.139298 128.18573000000004l95.930863 0 0 95.930863L607.92984 224.11659299999997l0-95.930863L703.860702 128.18573000000004zM799.834544 703.768861c17.636682 0 31.934317-14.387685 31.934317-31.837102l0-384.001791c0-17.582447-14.254655-31.836079-31.934317-31.836079L224.164433 256.093888c-17.636682 0-31.933293 14.387685-31.933293 31.836079L192.231139 671.930735c0 17.582447 14.254655 31.837102 31.933293 31.837102L799.834544 703.767837z"  horiz-adv-x="1024" />

    
    <glyph glyph-name="xialakuangsanjiaoshang" unicode="&#58915;" d="M959.36 616.32l-448.0000000000001-463.35999999999996-447.9999999999999 463.3600000000002z"  horiz-adv-x="1024" />

    
    <glyph glyph-name="xialakuangsanjiaoshang-copy-copy-copy" unicode="&#58916;" d="M64.64000000000016 151.67999999999995l448 463.36000000000007 448.00000000000006-463.36z"  horiz-adv-x="1024" />

    
    </font>
</defs>
</svg>
